<?xml version="1.0" encoding="UTF-8" standalone="no"?>
<!-- Created with Inkscape (http://www.inkscape.org/) -->

<svg
   width="23.858774mm"
   height="48.926212mm"
   viewBox="0 0 23.858774 48.926212"
   version="1.1"
   id="svg1"
   xmlns:inkscape="http://www.inkscape.org/namespaces/inkscape"
   xmlns:sodipodi="http://sodipodi.sourceforge.net/DTD/sodipodi-0.dtd"
   xmlns="http://www.w3.org/2000/svg"
   xmlns:svg="http://www.w3.org/2000/svg">
  <sodipodi:namedview
     id="namedview1"
     pagecolor="#ffffff"
     bordercolor="#000000"
     borderopacity="0.25"
     inkscape:showpageshadow="2"
     inkscape:pageopacity="0.0"
     inkscape:pagecheckerboard="0"
     inkscape:deskcolor="#d1d1d1"
     inkscape:document-units="mm" />
  <defs
     id="defs1" />
  <g
     inkscape:label="Warstwa 1"
     inkscape:groupmode="layer"
     id="layer1"
     transform="translate(-93.133333,-124.08959)">
    <g
       id="g150"
       inkscape:export-filename="..\Desktop\orangecar.png"
       inkscape:export-xdpi="96"
       inkscape:export-ydpi="96"
       transform="matrix(0.26458333,0,0,0.26458333,-3.8949447,113.62002)">&#10;		<g
   id="g149">&#10;			<path
   style="fill:#663d00"
   d="m 411.809,188.868 v 0 c -18.998,0 -34.542,1.281 -34.542,-16.614 V 49.52 c 0,0 15.544,-9.95 34.542,-9.95 v 0 c 18.998,0 34.542,9.95 34.542,9.95 v 122.735 c 0,17.894 -15.544,16.613 -34.542,16.613 z"
   id="path131" />
&#10;			<path
   style="fill:#ff7500"
   d="m 411.809,221.573 v 0 c -21.347,0 -38.813,1.528 -38.813,-19.819 V 55.339 c 0,0 17.466,-12.745 38.812,-12.745 v 0 c 21.347,0 38.812,12.745 38.812,12.745 v 146.415 c 10e-4,21.347 -17.464,19.819 -38.811,19.819 z"
   id="path132" />
&#10;			<path
   style="fill:#bf5800"
   d="m 397.872,144.05 h 27.874 l 8.413,-97.166 c -6.331,-2.358 -14.043,-4.29 -22.35,-4.29 v 0 c -8.307,0 -16.02,1.932 -22.35,4.29 z"
   id="path133" />
&#10;			<path
   style="fill:#ff8b29"
   d="m 399.801,144.05 h 24.016 l 7.328,-98.216 c -5.703,-1.854 -12.306,-3.239 -19.336,-3.239 v 0 c -7.03,0 -13.633,1.385 -19.336,3.239 z"
   id="path134" />
&#10;			<path
   style="fill:#ffffff"
   d="m 384.32,57.695 c 3.933,0 7.152,-3.218 7.152,-7.152 v -2.335 c 0,-0.675 -0.098,-1.327 -0.275,-1.947 -5.775,1.993 -10.532,4.415 -13.733,6.259 0.863,2.978 3.609,5.175 6.856,5.175 z"
   id="path135" />
&#10;			<path
   style="fill:#ffffff"
   d="m 432.421,46.261 c -0.177,0.62 -0.275,1.272 -0.275,1.947 v 2.335 c 0,3.934 3.218,7.152 7.152,7.152 3.246,0 5.992,-2.197 6.856,-5.175 -3.201,-1.844 -7.958,-4.266 -13.733,-6.259 z"
   id="path136" />
&#10;			<path
   style="fill:#ff8b29"
   d="m 433.899,204.559 h -44.181 c -7.48,0 -13.6,-0.557 -13.6,6.923 v 2.452 c 5.944,8.489 19.731,7.639 35.691,7.639 v 0 c 15.959,0 29.747,0.85 35.691,-7.639 v -2.452 c -10e-4,-7.48 -6.121,-6.923 -13.601,-6.923 z"
   id="path137" />
&#10;			<path
   style="fill:#ffa559"
   d="m 414.44,199.097 h -5.262 c -17.707,0 -33.06,-4.663 -33.06,-10.415 V 139.66 c 0,0 12.133,-8.782 35.691,-8.782 23.557,0 35.691,8.782 35.691,8.782 v 49.021 c -10e-4,5.753 -10.783,10.416 -33.06,10.416 z"
   id="path138" />
&#10;			<path
   style="fill:#c23000"
   d="m 383.938,214.037 c -2.175,0 -4.136,0.936 -5.519,2.419 3.216,2.743 7.706,4.038 13.053,4.637 -0.263,-3.924 -3.546,-7.056 -7.534,-7.056 z"
   id="path139" />
&#10;			<path
   style="fill:#c23000"
   d="m 432.145,221.093 c 5.347,-0.599 9.837,-1.894 13.053,-4.637 -1.383,-1.482 -3.344,-2.419 -5.519,-2.419 -3.987,0 -7.271,3.132 -7.534,7.056 z"
   id="path140" />
&#10;			<path
   style="fill:#ad5000"
   d="m 423.989,224.487 h -24.361 c -1.59,0 -2.89,-1.301 -2.89,-2.89 v 0 c 0,-1.59 1.301,-2.89 2.89,-2.89 h 24.361 c 1.59,0 2.89,1.301 2.89,2.89 v 0 c 10e-4,1.59 -1.3,2.89 -2.89,2.89 z"
   id="path141" />
&#10;			<path
   style="fill:#ff8b29"
   d="m 370.3,160.86 6.011,-2.178 c 1.4,-0.507 2.147,-2.115 1.66,-3.574 v 0 c -0.487,-1.458 -2.03,-2.236 -3.43,-1.729 l -6.011,2.178 c -1.4,0.507 -2.147,2.115 -1.66,3.574 v 0 c 0.487,1.458 2.031,2.236 3.43,1.729 z"
   id="path142" />
&#10;			<path
   style="fill:#ff8b29"
   d="m 453.317,160.86 -6.011,-2.178 c -1.4,-0.507 -2.147,-2.115 -1.66,-3.574 v 0 c 0.487,-1.458 2.031,-2.236 3.43,-1.729 l 6.011,2.178 c 1.4,0.507 2.147,2.115 1.66,3.574 v 0 c -0.486,1.458 -2.03,2.236 -3.43,1.729 z"
   id="path143" />
&#10;			<path
   style="fill:#143752"
   d="m 379.03,143.467 c 2.215,3.168 4.409,5.946 6.587,8.374 1.868,2.081 3.664,3.837 5.364,5.321 5.891,1.474 13.232,2.325 20.828,2.325 7.595,0 14.936,-0.851 20.828,-2.325 1.7,-1.484 3.496,-3.239 5.364,-5.321 2.179,-2.428 4.373,-5.206 6.587,-8.374 -4.829,-4.341 -16.824,-7.688 -32.779,-7.688 -15.955,0 -27.951,3.347 -32.779,7.688 z"
   id="path144" />
&#10;			<path
   style="fill:#143752"
   d="m 432.636,181.481 c -5.891,-1.072 -13.232,-1.691 -20.828,-1.691 -7.595,0 -14.936,0.619 -20.828,1.691 l -11.952,8.146 c 4.828,3.157 16.824,6.546 32.779,6.546 15.955,0 27.951,-3.389 32.779,-6.546 z"
   id="path145" />
&#10;			<g
   id="g147">&#10;				<path
   style="fill:#143752"
   d="M 388.252,171.452 V 160.87 c -7.341,-4.458 -9.832,-11.229 -9.832,-11.229 v 21.811 9.97 4.268 c 0,0 6.526,-3.553 9.832,-5.828 z"
   id="path146" />
&#10;				<path
   style="fill:#143752"
   d="m 435.366,179.863 c 3.306,2.274 9.832,5.828 9.832,5.828 v -4.268 -9.97 -21.811 c 0,0 -2.492,6.77 -9.832,11.229 v 10.582 z"
   id="path147" />
&#10;			</g>
&#10;			<path
   style="fill:#ffa559"
   d="m 426.193,100.633 h -28.768 c -3.274,0 -5.952,-2.679 -5.952,-5.953 v -4.463 c 0,-3.274 2.679,-5.952 5.952,-5.952 h 28.768 c 3.274,0 5.953,2.679 5.953,5.952 v 4.463 c -0.001,3.274 -2.679,5.953 -5.953,5.953 z"
   id="path148" />
&#10;			<path
   style="fill:#ff7500"
   d="M 425.998,95.214 H 397.62 c -1.235,0 -2.245,-1.01 -2.245,-2.245 v -0.505 c 0,-1.235 1.01,-2.245 2.245,-2.245 h 28.378 c 1.235,0 2.245,1.01 2.245,2.245 v 0.505 c 0,1.234 -1.01,2.245 -2.245,2.245 z"
   id="path149" />
&#10;		</g>
&#10;		<path
   style="opacity:0.2"
   d="m 423.989,224.487 c 1.59,0 2.89,-1.301 2.89,-2.89 v 0 c 0,-0.04 -0.01,-0.078 -0.012,-0.118 0.081,-0.003 0.159,-0.008 0.24,-0.012 0.364,-0.016 0.723,-0.034 1.081,-0.054 0.292,-0.016 0.581,-0.034 0.869,-0.053 0.309,-0.02 0.617,-0.041 0.921,-0.064 0.229,-0.018 0.456,-0.037 0.682,-0.057 0.263,-0.023 0.523,-0.048 0.782,-0.073 0.223,-0.022 0.447,-0.044 0.668,-0.069 0.324,-0.036 0.642,-0.076 0.959,-0.117 0.288,-0.038 0.572,-0.078 0.855,-0.12 0.024,-0.004 0.049,-0.007 0.073,-0.011 0.062,-0.009 0.124,-0.018 0.185,-0.028 0.178,-0.028 0.357,-0.055 0.533,-0.084 0.214,-0.036 0.425,-0.074 0.636,-0.113 0.195,-0.036 0.389,-0.073 0.581,-0.112 0.041,-0.008 0.081,-0.017 0.122,-0.025 0.2,-0.041 0.401,-0.082 0.598,-0.126 0.292,-0.065 0.579,-0.136 0.863,-0.208 0.261,-0.066 0.517,-0.136 0.772,-0.208 0.229,-0.065 0.457,-0.131 0.68,-0.201 0.191,-0.06 0.379,-0.123 0.566,-0.187 0.202,-0.069 0.401,-0.141 0.599,-0.214 0.181,-0.067 0.362,-0.134 0.539,-0.205 0.125,-0.051 0.247,-0.105 0.37,-0.157 0.018,-0.008 0.035,-0.015 0.052,-0.023 0.116,-0.05 0.231,-0.1 0.345,-0.151 0.222,-0.1 0.439,-0.206 0.654,-0.314 0.193,-0.097 0.385,-0.194 0.572,-0.297 0.163,-0.089 0.322,-0.182 0.481,-0.277 0.172,-0.102 0.34,-0.207 0.506,-0.315 0.15,-0.097 0.302,-0.193 0.449,-0.296 0.24,-0.168 0.474,-0.343 0.702,-0.524 0.159,-0.126 0.313,-0.258 0.466,-0.391 0.16,-0.138 0.318,-0.277 0.472,-0.423 0.129,-0.122 0.254,-0.249 0.379,-0.376 0.141,-0.145 0.278,-0.295 0.413,-0.447 0.115,-0.129 0.231,-0.257 0.342,-0.392 0.217,-0.264 0.426,-0.536 0.625,-0.821 2.007,-2.866 3.122,-6.793 3.122,-12.18 v -41.871 l 2.696,0.977 c 1.4,0.507 2.944,-0.271 3.43,-1.729 0.487,-1.458 -0.26,-3.066 -1.66,-3.574 l -4.466,-1.618 v -98.6 c 0,0 -1.548,-1.126 -4.27,-2.705 V 49.52 c 0,0 -15.544,-9.95 -34.542,-9.95 v 0 184.918 h 12.18 z"
   id="path150" />
&#10;	</g>
  </g>
</svg>
