<?xml version="1.0" encoding="UTF-8" standalone="no"?>
<!-- Created with Inkscape (http://www.inkscape.org/) -->

<svg
   width="22.51207mm"
   height="53.620728mm"
   viewBox="0 0 22.51207 53.620728"
   version="1.1"
   id="svg1"
   xmlns:inkscape="http://www.inkscape.org/namespaces/inkscape"
   xmlns:sodipodi="http://sodipodi.sourceforge.net/DTD/sodipodi-0.dtd"
   xmlns="http://www.w3.org/2000/svg"
   xmlns:svg="http://www.w3.org/2000/svg">
  <sodipodi:namedview
     id="namedview1"
     pagecolor="#ffffff"
     bordercolor="#000000"
     borderopacity="0.25"
     inkscape:showpageshadow="2"
     inkscape:pageopacity="0.0"
     inkscape:pagecheckerboard="0"
     inkscape:deskcolor="#d1d1d1"
     inkscape:document-units="mm" />
  <defs
     id="defs1" />
  <g
     inkscape:label="Warstwa 1"
     inkscape:groupmode="layer"
     id="layer1"
     transform="translate(-98.954165,-117.475)">
    <g
       id="g170"
       inkscape:export-filename="car2.svg"
       inkscape:export-xdpi="96"
       inkscape:export-ydpi="96"
       transform="matrix(0.26458333,0,0,0.26458333,86.113144,49.587679)">&#10;		<g
   id="g169">&#10;			<path
   style="fill:#246f75"
   d="m 61.369,343.151 h -8.817 c -2.21,0 -4.019,-1.808 -4.019,-4.018 v -33.671 c 0,-2.21 1.808,-4.018 4.019,-4.018 h 8.817 c 2.21,0 4.019,1.808 4.019,4.018 v 33.671 c 0,2.209 -1.809,4.018 -4.019,4.018 z"
   id="path151" />
&#10;			<path
   style="fill:#246f75"
   d="m 129.6,343.151 h -8.817 c -2.21,0 -4.019,-1.808 -4.019,-4.018 v -33.671 c 0,-2.21 1.808,-4.018 4.019,-4.018 h 8.817 c 2.21,0 4.018,1.808 4.018,4.018 v 33.671 c 0,2.209 -1.808,4.018 -4.018,4.018 z"
   id="path152" />
&#10;			<path
   style="fill:#246f75"
   d="m 61.369,436.519 h -8.817 c -2.21,0 -4.019,-1.808 -4.019,-4.019 v -33.67 c 0,-2.21 1.808,-4.019 4.019,-4.019 h 8.817 c 2.21,0 4.019,1.808 4.019,4.019 v 33.671 c 0,2.21 -1.809,4.018 -4.019,4.018 z"
   id="path153" />
&#10;			<path
   style="fill:#246f75"
   d="m 129.6,436.519 h -8.817 c -2.21,0 -4.019,-1.808 -4.019,-4.019 v -33.67 c 0,-2.21 1.808,-4.019 4.019,-4.019 h 8.817 c 2.21,0 4.018,1.808 4.018,4.019 v 33.671 c 0,2.21 -1.808,4.018 -4.018,4.018 z"
   id="path154" />
&#10;			<path
   style="fill:#1a4f54"
   d="m 91.076,333.642 v 0 c -18.998,0 -34.542,1.281 -34.542,-16.614 v -50.496 c 0,0 15.544,-9.95 34.542,-9.95 v 0 c 18.998,0 34.542,9.95 34.542,9.95 v 50.496 c 0,17.895 -15.544,16.614 -34.542,16.614 z"
   id="path155" />
&#10;			<path
   style="fill:#37a9b3"
   d="m 91.076,459.242 v 0 c -21.347,0 -38.812,-2.099 -38.812,-23.446 V 272.352 c 0,0 17.466,-12.745 38.812,-12.745 v 0 c 21.347,0 38.812,12.745 38.812,12.745 v 163.444 c 0,21.347 -17.465,23.446 -38.812,23.446 z"
   id="path156" />
&#10;			<path
   style="fill:#ffffff"
   d="m 63.587,274.707 c 3.934,0 7.152,-3.218 7.152,-7.152 v -2.335 c 0,-0.675 -0.098,-1.327 -0.275,-1.947 -5.775,1.993 -10.532,4.415 -13.733,6.259 0.863,2.978 3.609,5.175 6.856,5.175 z"
   id="path157" />
&#10;			<path
   style="fill:#ffffff"
   d="m 111.688,263.274 c -0.177,0.62 -0.275,1.272 -0.275,1.947 v 2.335 c 0,3.934 3.218,7.152 7.152,7.152 3.247,0 5.993,-2.197 6.856,-5.175 -3.201,-1.844 -7.958,-4.266 -13.733,-6.259 z"
   id="path158" />
&#10;			<path
   style="fill:#3fc3cf"
   d="M 55.385,432.181 V 310.822 c 0,0 12.133,-14.15 35.691,-14.15 23.558,0 35.691,14.15 35.691,14.15 v 121.359 z"
   id="path159" />
&#10;			<path
   style="fill:#ea3a00"
   d="m 53.99,445.816 c 2.162,5.305 6.254,8.536 11.637,10.497 -1.598,-8.699 -4.321,-14.46 -7.403,-14.46 -1.533,-0.001 -2.973,1.453 -4.234,3.963 z"
   id="path160" />
&#10;			<path
   style="fill:#ea3a00"
   d="m 116.525,456.313 c 5.383,-1.961 9.474,-5.192 11.637,-10.497 -1.261,-2.509 -2.701,-3.964 -4.234,-3.964 -3.082,0 -5.805,5.762 -7.403,14.461 z"
   id="path161" />
&#10;			<path
   style="fill:#3fc3cf"
   d="m 52.023,321.21 5.656,-2.049 c 1.317,-0.477 2.02,-1.99 1.562,-3.362 v 0 c -0.458,-1.372 -1.911,-2.104 -3.228,-1.627 l -5.656,2.049 c -1.317,0.477 -2.02,1.99 -1.562,3.362 v 0 c 0.458,1.372 1.911,2.104 3.228,1.627 z"
   id="path162" />
&#10;			<path
   style="fill:#3fc3cf"
   d="m 130.129,321.21 -5.656,-2.049 c -1.317,-0.477 -2.02,-1.99 -1.562,-3.362 v 0 c 0.458,-1.372 1.91,-2.104 3.228,-1.627 l 5.655,2.049 c 1.317,0.477 2.02,1.99 1.562,3.362 v 0 c -0.458,1.372 -1.91,2.104 -3.227,1.627 z"
   id="path163" />
&#10;			<path
   style="fill:#184161"
   d="m 111.903,339.073 c 1.7,-2.602 3.496,-5.681 5.364,-9.331 2.179,-4.258 4.373,-9.131 6.587,-14.686 -4.829,-7.613 -16.824,-13.483 -32.779,-13.483 -15.955,0 -27.951,5.87 -32.779,13.483 2.214,5.555 4.408,10.428 6.587,14.686 1.868,3.65 3.664,6.73 5.364,9.331 z"
   id="path164" />
&#10;			<polygon
   style="fill:#184161"
   points="70.249,407.007 58.297,427.861 123.855,427.861 111.904,407.008 "
   id="polygon164" />
&#10;			<g
   id="g166">&#10;				<polygon
   style="fill:#184161"
   points="57.686,352.704 57.686,362.674 57.686,371.594 67.519,367.58 67.519,352.704 67.519,342.122 57.686,321.356 "
   id="polygon165" />
&#10;				<polygon
   style="fill:#184161"
   points="114.633,352.704 114.633,367.58 124.465,371.594 124.465,362.674 124.465,352.704 124.465,321.356 114.633,342.122 "
   id="polygon166" />
&#10;			</g>
&#10;			<g
   id="g168">&#10;				<polygon
   style="fill:#184161"
   points="57.686,394.171 57.686,384.201 57.686,375.281 67.519,371.594 67.519,394.171 67.519,404.753 57.686,425.519 "
   id="polygon167" />
&#10;				<polygon
   style="fill:#184161"
   points="114.633,394.171 114.633,371.594 124.465,375.281 124.465,384.201 124.465,394.171 124.465,425.519 114.633,404.753 "
   id="polygon168" />
&#10;			</g>
&#10;			<path
   style="fill:#329aa3"
   d="m 91.076,441.852 c -14.055,0 -25.448,6.362 -25.448,14.209 0,0.086 0.009,0.17 0.012,0.256 6.826,2.483 15.726,2.925 25.437,2.925 v 0 c 9.711,0 18.611,-0.441 25.437,-2.925 0.003,-0.085 0.012,-0.17 0.012,-0.256 -0.002,-7.847 -11.395,-14.209 -25.45,-14.209 z"
   id="path168" />
&#10;			<path
   style="fill:#3fc3cf"
   d="m 91.076,445.099 c -12.43,0 -22.515,5.407 -22.63,12.099 6.383,1.71 14.201,2.044 22.63,2.044 v 0 c 8.43,0 16.248,-0.333 22.63,-2.044 -0.115,-6.693 -10.2,-12.099 -22.63,-12.099 z"
   id="path169" />
&#10;		</g>
&#10;		<path
   style="opacity:0.2"
   d="m 133.618,339.132 v -33.671 c 0,-2.111 -1.656,-3.837 -3.73,-3.989 v -29.12 c 0,0 -1.548,-1.127 -4.27,-2.705 v -3.114 c 0,0 -15.544,-9.95 -34.542,-9.95 v 202.66 c 0.944,0 1.878,-0.006 2.806,-0.016 0.178,-0.002 0.356,-0.004 0.533,-0.006 0.018,0 0.036,0 0.054,-10e-4 0.094,-0.001 0.189,-0.002 0.283,-0.003 0.831,-0.012 1.655,-0.029 2.47,-0.052 0.047,-0.001 0.094,-0.003 0.141,-0.005 0.215,-0.006 0.427,-0.014 0.641,-0.021 0.096,-0.003 0.192,-0.006 0.288,-0.009 0.631,-0.022 1.256,-0.049 1.876,-0.079 0.042,-0.002 0.085,-0.004 0.126,-0.006 0.402,-0.02 0.801,-0.044 1.198,-0.068 0.062,-0.004 0.124,-0.008 0.186,-0.012 0.486,-0.031 0.968,-0.064 1.446,-0.101 0.025,-0.002 0.05,-0.004 0.076,-0.006 0.564,-0.044 1.122,-0.093 1.674,-0.147 0.001,0 0.001,0 0.001,0 1.293,-0.126 2.551,-0.282 3.774,-0.47 0.008,-10e-4 0.015,-0.002 0.022,-0.003 2.83,-0.436 5.46,-1.054 7.839,-1.92 h 10e-4 c 1.334,-0.485 2.587,-1.049 3.752,-1.703 0.031,-0.018 0.062,-0.036 0.094,-0.053 1.134,-0.644 2.185,-1.373 3.14,-2.201 0.046,-0.04 0.089,-0.081 0.134,-0.121 0.426,-0.377 0.833,-0.774 1.219,-1.193 0.046,-0.049 0.094,-0.097 0.139,-0.147 0.412,-0.456 0.802,-0.936 1.166,-1.442 0.035,-0.049 0.067,-0.101 0.102,-0.151 0.317,-0.451 0.612,-0.925 0.89,-1.417 0.061,-0.107 0.122,-0.213 0.181,-0.322 1.566,-2.915 2.457,-6.552 2.541,-11.076 2.083,-0.143 3.748,-1.873 3.748,-3.991 V 398.83 c 0,-2.111 -1.656,-3.837 -3.73,-3.989 v -51.719 c 2.076,-0.152 3.731,-1.878 3.731,-3.99 z"
   id="path170" />
&#10;	</g>
  </g>
</svg>
