<?xml version="1.0" encoding="UTF-8" standalone="no"?>
<!-- Created with Inkscape (http://www.inkscape.org/) -->

<svg
   width="23.858782mm"
   height="51.845577mm"
   viewBox="0 0 23.858782 51.845577"
   version="1.1"
   id="svg1"
   xmlns:inkscape="http://www.inkscape.org/namespaces/inkscape"
   xmlns:sodipodi="http://sodipodi.sourceforge.net/DTD/sodipodi-0.dtd"
   xmlns="http://www.w3.org/2000/svg"
   xmlns:svg="http://www.w3.org/2000/svg">
  <sodipodi:namedview
     id="namedview1"
     pagecolor="#ffffff"
     bordercolor="#000000"
     borderopacity="0.25"
     inkscape:showpageshadow="2"
     inkscape:pageopacity="0.0"
     inkscape:pagecheckerboard="0"
     inkscape:deskcolor="#d1d1d1"
     inkscape:document-units="mm" />
  <defs
     id="defs1" />
  <g
     inkscape:label="Warstwa 1"
     inkscape:groupmode="layer"
     id="layer1"
     transform="translate(-129.11666,-88.370832)">
    <g
       id="g112"
       transform="matrix(0.26458333,0,0,0.26458333,60.520779,78.860915)">&#10;		<g
   id="g111">&#10;			<path
   style="fill:#663d00"
   d="m 274.641,101.492 h -8.817 c -2.21,0 -4.019,-1.808 -4.019,-4.019 v -33.67 c 0,-2.21 1.808,-4.019 4.019,-4.019 h 8.817 c 2.21,0 4.018,1.808 4.018,4.019 v 33.671 c 0,2.21 -1.808,4.018 -4.018,4.018 z"
   id="path87" />
&#10;			<path
   style="fill:#663d00"
   d="m 342.871,101.492 h -8.817 c -2.21,0 -4.019,-1.808 -4.019,-4.019 v -33.67 c 0,-2.21 1.808,-4.019 4.019,-4.019 h 8.817 c 2.21,0 4.019,1.808 4.019,4.019 v 33.671 c 0,2.21 -1.809,4.018 -4.019,4.018 z"
   id="path88" />
&#10;			<path
   style="fill:#663d00"
   d="m 274.641,207.057 h -8.817 c -2.21,0 -4.019,-1.808 -4.019,-4.019 v -33.671 c 0,-2.21 1.808,-4.019 4.019,-4.019 h 8.817 c 2.21,0 4.018,1.808 4.018,4.019 v 33.671 c 0,2.21 -1.808,4.019 -4.018,4.019 z"
   id="path89" />
&#10;			<path
   style="fill:#663d00"
   d="m 342.871,207.057 h -8.817 c -2.21,0 -4.019,-1.808 -4.019,-4.019 v -33.671 c 0,-2.21 1.808,-4.019 4.019,-4.019 h 8.817 c 2.21,0 4.019,1.808 4.019,4.019 v 33.671 c 0,2.21 -1.809,4.019 -4.019,4.019 z"
   id="path90" />
&#10;			<path
   style="fill:#663d00"
   d="m 304.347,113.003 v 0 c -18.998,0 -34.542,1.281 -34.542,-16.614 V 45.893 c 0,0 15.544,-9.95 34.542,-9.95 v 0 c 18.998,0 34.542,9.95 34.542,9.95 v 50.496 c 0,17.895 -15.544,16.614 -34.542,16.614 z"
   id="path91" />
&#10;			<path
   style="fill:#b46c00"
   d="m 304.347,231.348 v 0 c -21.347,0 -38.813,5.155 -38.813,-16.192 V 51.713 c 0,0 17.466,-12.745 38.812,-12.745 v 0 c 21.347,0 38.812,12.745 38.812,12.745 v 163.444 c 0.002,21.346 -17.464,16.191 -38.811,16.191 z"
   id="path92" />
&#10;			<path
   style="fill:#db8100"
   d="m 340.038,119.159 v 90.938 c 0,0 -12.133,11.374 -35.691,11.374 -23.558,0 -35.69,-11.374 -35.69,-11.374 v -90.938 z"
   id="path93" />
&#10;			<path
   style="fill:#915700"
   d="m 337.126,119.159 v 87.286 c 0,0 -11.144,10.794 -32.779,10.794 -21.635,0 -32.779,-10.794 -32.779,-10.794 v -87.286 z"
   id="path94" />
&#10;			<path
   style="fill:#734500"
   d="m 278.504,202.634 v 0 c -1.004,0 -1.825,-0.821 -1.825,-1.825 v -88.383 c 0,-1.004 0.821,-1.825 1.825,-1.825 v 0 c 1.004,0 1.825,0.821 1.825,1.825 v 88.383 c 0,1.004 -0.822,1.825 -1.825,1.825 z"
   id="path95" />
&#10;			<path
   style="fill:#734500"
   d="m 291.425,207.377 v 0 c -1.004,0 -1.825,-0.821 -1.825,-1.825 v -93.125 c 0,-1.004 0.821,-1.825 1.825,-1.825 v 0 c 1.004,0 1.825,0.821 1.825,1.825 v 93.125 c 0,1.004 -0.821,1.825 -1.825,1.825 z"
   id="path96" />
&#10;			<path
   style="fill:#734500"
   d="m 330.191,202.634 v 0 c 1.004,0 1.825,-0.821 1.825,-1.825 v -88.383 c 0,-1.004 -0.821,-1.825 -1.825,-1.825 v 0 c -1.004,0 -1.825,0.821 -1.825,1.825 v 88.383 c 0,1.004 0.821,1.825 1.825,1.825 z"
   id="path97" />
&#10;			<path
   style="fill:#734500"
   d="m 317.269,207.377 v 0 c 1.004,0 1.825,-0.821 1.825,-1.825 v -93.125 c 0,-1.004 -0.821,-1.825 -1.825,-1.825 v 0 c -1.004,0 -1.825,0.821 -1.825,1.825 v 93.125 c 0,1.004 0.821,1.825 1.825,1.825 z"
   id="path98" />
&#10;			<path
   style="fill:#734500"
   d="m 304.347,210.493 v 0 c -1.004,0 -1.825,-0.821 -1.825,-1.825 v -104.36 c 0,-1.004 0.821,-1.825 1.825,-1.825 v 0 c 1.004,0 1.825,0.821 1.825,1.825 v 104.361 c 0,1.003 -0.821,1.824 -1.825,1.824 z"
   id="path99" />
&#10;			<path
   style="fill:#ffffff"
   d="m 276.858,54.068 c 3.934,0 7.152,-3.218 7.152,-7.152 v -2.335 c 0,-0.675 -0.098,-1.327 -0.275,-1.947 -5.775,1.993 -10.532,4.415 -13.733,6.259 0.864,2.978 3.61,5.175 6.856,5.175 z"
   id="path100" />
&#10;			<path
   style="fill:#ffffff"
   d="m 324.96,42.634 c -0.177,0.62 -0.275,1.272 -0.275,1.947 v 2.335 c 0,3.934 3.218,7.152 7.152,7.152 3.247,0 5.993,-2.197 6.856,-5.175 -3.201,-1.844 -7.958,-4.266 -13.733,-6.259 z"
   id="path101" />
&#10;			<path
   style="fill:#db8100"
   d="M 268.657,119.158 V 63.795 c 0,0 12.133,-8.782 35.691,-8.782 23.558,0 35.69,8.782 35.69,8.782 v 55.363 z"
   id="path102" />
&#10;			<path
   style="fill:#c23000"
   d="m 280.912,231.757 c -0.993,-3.654 -4.339,-6.363 -8.296,-6.363 -1.51,0 -2.927,0.4 -4.162,1.092 2.656,3.557 6.993,4.885 12.458,5.271 z"
   id="path103" />
&#10;			<path
   style="fill:#c23000"
   d="m 340.241,226.486 c -1.235,-0.692 -2.652,-1.092 -4.162,-1.092 -3.957,0 -7.304,2.709 -8.296,6.363 5.465,-0.386 9.802,-1.714 12.458,-5.271 z"
   id="path104" />
&#10;			<path
   style="fill:#db8100"
   d="m 262.839,84.995 6.011,-2.178 c 1.4,-0.507 2.147,-2.115 1.66,-3.574 v 0 c -0.487,-1.458 -2.031,-2.236 -3.43,-1.729 l -6.011,2.178 c -1.4,0.507 -2.147,2.116 -1.66,3.574 v 0 c 0.486,1.458 2.03,2.236 3.43,1.729 z"
   id="path105" />
&#10;			<path
   style="fill:#db8100"
   d="m 345.856,84.995 -6.011,-2.178 c -1.4,-0.507 -2.147,-2.115 -1.66,-3.574 v 0 c 0.487,-1.458 2.031,-2.236 3.43,-1.729 l 6.011,2.178 c 1.4,0.507 2.147,2.116 1.66,3.574 v 0 c -0.487,1.458 -2.031,2.236 -3.43,1.729 z"
   id="path106" />
&#10;			<path
   style="fill:#143752"
   d="m 271.568,67.602 c 2.214,3.168 4.409,5.946 6.587,8.374 1.868,2.082 3.664,3.837 5.364,5.321 5.891,1.474 13.232,2.326 20.828,2.326 7.595,0 14.936,-0.852 20.828,-2.326 1.7,-1.483 3.496,-3.239 5.364,-5.321 2.179,-2.428 4.373,-5.206 6.587,-8.374 -4.828,-4.341 -16.824,-7.688 -32.779,-7.688 -15.955,0 -27.951,3.347 -32.779,7.688 z"
   id="path107" />
&#10;			<path
   style="fill:#143752"
   d="m 337.126,116.482 -11.952,-4.073 c -5.891,-0.536 -13.232,-0.846 -20.828,-0.846 -7.595,0 -14.936,0.31 -20.828,0.846 l -11.952,4.073 z"
   id="path108" />
&#10;			<g
   id="g110">&#10;				<path
   style="fill:#143752"
   d="M 280.79,95.587 V 85.005 c -7.341,-4.459 -9.832,-11.229 -9.832,-11.229 v 21.811 9.97 8.92 l 9.832,-4.014 z"
   id="path109" />
&#10;				<path
   style="fill:#143752"
   d="m 327.904,110.463 9.832,4.014 v -8.92 -9.97 -21.811 c 0,0 -2.492,6.77 -9.832,11.229 v 10.582 z"
   id="path110" />
&#10;			</g>
&#10;		</g>
&#10;		<path
   style="opacity:0.2"
   d="m 347.626,79.692 -0.737,-0.267 V 63.803 c 0,-2.111 -1.655,-3.838 -3.73,-3.989 v -8.101 c 0,0 -1.548,-1.127 -4.27,-2.705 v -3.114 c 0,0 -15.544,-9.95 -34.542,-9.95 v 0 195.406 0 c 9.577,0 18.366,1.031 25.155,0.248 0.156,-0.018 0.311,-0.037 0.465,-0.057 0.239,-0.031 0.476,-0.063 0.709,-0.099 0.139,-0.021 0.274,-0.046 0.412,-0.07 0.407,-0.069 0.806,-0.146 1.196,-0.232 0.132,-0.029 0.264,-0.058 0.394,-0.089 0.226,-0.054 0.449,-0.111 0.668,-0.171 0.11,-0.03 0.216,-0.063 0.324,-0.095 0.404,-0.119 0.798,-0.251 1.18,-0.394 0.09,-0.034 0.181,-0.066 0.27,-0.101 0.212,-0.084 0.42,-0.174 0.625,-0.266 0.087,-0.039 0.172,-0.081 0.258,-0.122 0.415,-0.198 0.816,-0.414 1.199,-0.65 0.027,-0.016 0.055,-0.031 0.081,-0.048 0.193,-0.121 0.38,-0.25 0.565,-0.382 0.07,-0.05 0.14,-0.102 0.209,-0.154 0.565,-0.423 1.088,-0.899 1.566,-1.432 0.061,-0.068 0.122,-0.138 0.182,-0.208 2.148,-2.524 3.354,-6.283 3.354,-11.869 v -8.129 c 2.074,-0.152 3.73,-1.878 3.73,-3.989 V 169.37 c 0,-2.111 -1.655,-3.837 -3.73,-3.989 v -63.915 c 2.074,-0.152 3.73,-1.878 3.73,-3.989 V 85.143 c 1.057,-0.064 2.029,-0.775 2.396,-1.877 0.488,-1.459 -0.259,-3.067 -1.659,-3.574 z"
   id="path111" />
&#10;	</g>
  </g>
</svg>
