<?xml version="1.0" encoding="UTF-8" standalone="no"?>
<!-- Created with Inkscape (http://www.inkscape.org/) -->

<svg
   width="24.856031mm"
   height="50.199135mm"
   viewBox="0 0 24.856031 50.199135"
   version="1.1"
   id="svg1"
   xmlns:inkscape="http://www.inkscape.org/namespaces/inkscape"
   xmlns:sodipodi="http://sodipodi.sourceforge.net/DTD/sodipodi-0.dtd"
   xmlns="http://www.w3.org/2000/svg"
   xmlns:svg="http://www.w3.org/2000/svg">
  <sodipodi:namedview
     id="namedview1"
     pagecolor="#ffffff"
     bordercolor="#000000"
     borderopacity="0.25"
     inkscape:showpageshadow="2"
     inkscape:pageopacity="0.0"
     inkscape:pagecheckerboard="0"
     inkscape:deskcolor="#d1d1d1"
     inkscape:document-units="mm" />
  <defs
     id="defs1" />
  <g
     inkscape:label="Warstwa 1"
     inkscape:groupmode="layer"
     id="layer1"
     transform="translate(-86.783335,-160.60209)">
    <g
       id="g70"
       transform="matrix(0.26458333,0,0,0.26458333,47.118595,151.4057)">&#10;		<g
   id="g69">&#10;			<g
   id="g63">&#10;				<path
   style="fill:#152422"
   d="m 196.886,218.27 v 0 c -21.347,0 -38.813,1.528 -38.813,-19.819 V 73.57 c 0,-21.347 17.466,-38.812 38.812,-38.812 v 0 c 21.347,0 38.812,17.466 38.812,38.812 v 124.881 c 0.001,21.347 -17.464,19.819 -38.811,19.819 z"
   id="path51" />
&#10;				<path
   style="fill:#ea3a00"
   d="m 196.886,221.573 v 0 c -21.347,0 -38.813,1.528 -38.813,-19.819 V 76.873 c 0,-21.347 17.466,-38.812 38.812,-38.812 v 0 c 21.347,0 38.812,17.466 38.812,38.812 v 124.881 c 0.001,21.347 -17.464,19.819 -38.811,19.819 z"
   id="path52" />
&#10;				<path
   style="fill:#ab2a00"
   d="m 218.749,44.857 c -6.237,-4.281 -13.77,-6.796 -21.864,-6.796 v 0 c -8.094,0 -15.626,2.515 -21.864,6.796 v 88.298 h 43.728 z"
   id="path53" />
&#10;				<path
   style="fill:#ea3a00"
   d="m 212.23,41.248 c -4.713,-2.046 -9.901,-3.187 -15.344,-3.187 v 0 c -5.443,0 -10.631,1.141 -15.344,3.187 l -1.986,91.907 h 34.661 z"
   id="path54" />
&#10;				<path
   style="fill:#c23000"
   d="m 218.976,197.882 h -44.181 c -7.48,0 -13.6,6.12 -13.6,13.6 v 2.452 c 5.944,8.489 19.731,7.639 35.691,7.639 v 0 c 15.959,0 29.747,0.85 35.691,-7.639 v -2.452 c -0.001,-7.48 -6.121,-13.6 -13.601,-13.6 z"
   id="path55" />
&#10;				<path
   style="fill:#ea7f5b"
   d="m 222.161,193.656 h -50.55 c -5.752,0 -10.415,-4.663 -10.415,-10.415 v -73.826 c 0,0 12.133,-8.782 35.691,-8.782 23.558,0 35.691,8.782 35.691,8.782 v 73.826 c -0.002,5.752 -4.665,10.415 -10.417,10.415 z"
   id="path56" />
&#10;				<path
   style="fill:#ffffff"
   d="m 164.672,55.294 c 3.402,0.32 7.235,-1.059 10.746,-4.274 2.924,-2.677 5.16,-6.201 6.567,-9.964 -7.062,2.961 -13.08,7.953 -17.313,14.238 z"
   id="path57" />
&#10;				<path
   style="fill:#ffffff"
   d="m 211.787,41.056 c 1.407,3.763 3.643,7.286 6.567,9.964 3.511,3.215 7.344,4.594 10.746,4.274 -4.233,-6.285 -10.252,-11.277 -17.313,-14.238 z"
   id="path58" />
&#10;				<path
   style="fill:#ea3a00"
   d="m 169.015,214.037 c -2.175,0 -4.137,0.936 -5.519,2.419 3.216,2.743 7.706,4.038 13.053,4.637 -0.263,-3.924 -3.546,-7.056 -7.534,-7.056 z"
   id="path59" />
&#10;				<path
   style="fill:#ea3a00"
   d="m 217.222,221.093 c 5.347,-0.599 9.837,-1.894 13.053,-4.637 -1.382,-1.482 -3.344,-2.419 -5.519,-2.419 -3.987,0 -7.271,3.132 -7.534,7.056 z"
   id="path60" />
&#10;				<path
   style="fill:#7a1f00"
   d="m 209.066,224.487 h -24.361 c -1.59,0 -2.89,-1.301 -2.89,-2.89 v 0 c 0,-1.59 1.301,-2.89 2.89,-2.89 h 24.361 c 1.59,0 2.89,1.301 2.89,2.89 v 0 c 0,1.59 -1.3,2.89 -2.89,2.89 z"
   id="path61" />
&#10;				<path
   style="fill:#bf2f00"
   d="m 153.643,132.894 6.262,-2.178 c 1.458,-0.507 2.236,-2.115 1.729,-3.574 v 0 c -0.507,-1.458 -2.115,-2.237 -3.574,-1.729 l -6.262,2.178 c -1.458,0.507 -2.236,2.116 -1.729,3.574 v 0 c 0.507,1.458 2.115,2.236 3.574,1.729 z"
   id="path62" />
&#10;				<path
   style="fill:#bf2f00"
   d="m 240.129,132.894 -6.262,-2.178 c -1.458,-0.507 -2.236,-2.115 -1.729,-3.574 v 0 c 0.507,-1.458 2.115,-2.237 3.574,-1.729 l 6.262,2.178 c 1.458,0.507 2.236,2.116 1.729,3.574 v 0 c -0.508,1.458 -2.116,2.236 -3.574,1.729 z"
   id="path63" />
&#10;			</g>
&#10;			<path
   style="fill:#184161"
   d="m 164.106,113.133 c 2.215,3.168 4.409,5.946 6.587,8.374 1.868,2.082 3.664,3.837 5.364,5.321 5.891,1.474 13.232,2.326 20.828,2.326 7.595,0 14.936,-0.852 20.828,-2.326 1.7,-1.483 3.496,-3.239 5.364,-5.321 2.179,-2.428 4.373,-5.206 6.587,-8.374 -4.828,-4.341 -16.824,-7.688 -32.779,-7.688 -15.955,0 -27.95,3.347 -32.779,7.688 z"
   id="path64" />
&#10;			<path
   style="fill:#184161"
   d="m 229.665,186.907 c -2.214,-2.304 -4.408,-4.324 -6.587,-6.09 -1.868,-1.514 -3.664,-2.791 -5.364,-3.87 -5.891,-1.072 -13.232,-1.691 -20.828,-1.691 -7.595,0 -14.936,0.619 -20.828,1.691 -1.7,1.079 -3.496,2.356 -5.364,3.87 -2.179,1.766 -4.373,3.786 -6.587,6.09 4.829,3.157 16.824,2.919 32.779,2.919 15.955,0 27.95,0.238 32.779,-2.919 z"
   id="path65" />
&#10;			<path
   style="fill:#184161"
   d="m 163.496,117.017 c 0,0 2.492,6.771 9.832,11.229 v 20.552 h -9.832 z"
   id="path66" />
&#10;			<path
   style="fill:#184161"
   d="m 163.496,182.97 c 0,0 6.527,-6.273 9.832,-8.548 v -23.233 h -9.832 z"
   id="path67" />
&#10;			<path
   style="fill:#184161"
   d="m 230.275,117.017 c 0,0 -2.492,6.771 -9.832,11.229 v 20.552 h 9.832 z"
   id="path68" />
&#10;			<path
   style="fill:#184161"
   d="m 230.275,182.97 c 0,0 -6.526,-6.273 -9.832,-8.548 v -23.233 h 9.832 z"
   id="path69" />
&#10;		</g>
&#10;		<path
   style="opacity:0.2"
   d="m 241.973,127.591 -6.262,-2.178 c -0.004,-10e-4 -0.009,-0.002 -0.013,-0.003 V 76.873 73.57 c 0,-21.347 -17.466,-38.812 -38.812,-38.812 v 0 189.729 h 12.18 c 1.59,0 2.89,-1.301 2.89,-2.89 v 0 c 0,-0.04 -0.01,-0.078 -0.012,-0.118 0.081,-0.003 0.16,-0.008 0.24,-0.012 0.363,-0.016 0.722,-0.034 1.08,-0.054 0.293,-0.016 0.583,-0.034 0.872,-0.053 0.308,-0.02 0.616,-0.041 0.92,-0.064 0.229,-0.018 0.456,-0.037 0.683,-0.057 0.262,-0.023 0.522,-0.048 0.781,-0.073 0.224,-0.022 0.448,-0.044 0.669,-0.069 0.323,-0.036 0.642,-0.076 0.958,-0.117 0.288,-0.038 0.573,-0.078 0.856,-0.12 0.024,-0.004 0.048,-0.007 0.072,-0.011 0.062,-0.009 0.124,-0.018 0.186,-0.028 0.178,-0.028 0.356,-0.055 0.532,-0.084 0.214,-0.036 0.426,-0.075 0.637,-0.114 0.195,-0.036 0.388,-0.073 0.58,-0.112 0.041,-0.008 0.081,-0.017 0.121,-0.025 0.2,-0.041 0.401,-0.082 0.598,-0.126 0.291,-0.065 0.576,-0.135 0.86,-0.207 0.262,-0.066 0.52,-0.137 0.776,-0.21 0.228,-0.065 0.456,-0.13 0.679,-0.2 0.191,-0.06 0.379,-0.123 0.566,-0.187 0.202,-0.069 0.401,-0.141 0.598,-0.214 0.181,-0.067 0.363,-0.134 0.54,-0.205 0.125,-0.05 0.246,-0.105 0.369,-0.157 0.018,-0.008 0.036,-0.016 0.053,-0.023 0.114,-0.049 0.228,-0.098 0.34,-0.149 0.224,-0.101 0.443,-0.208 0.66,-0.317 0.192,-0.096 0.383,-0.193 0.57,-0.296 0.163,-0.09 0.323,-0.183 0.482,-0.277 0.171,-0.102 0.339,-0.207 0.504,-0.314 0.151,-0.098 0.303,-0.194 0.45,-0.296 0.24,-0.167 0.473,-0.343 0.701,-0.523 0.16,-0.126 0.313,-0.259 0.467,-0.392 0.159,-0.138 0.318,-0.277 0.471,-0.422 0.129,-0.123 0.255,-0.249 0.38,-0.378 0.141,-0.145 0.277,-0.294 0.412,-0.445 0.115,-0.13 0.232,-0.258 0.343,-0.393 0.215,-0.262 0.422,-0.532 0.62,-0.813 2.01,-2.866 3.127,-6.795 3.127,-12.187 v -3.303 -67.098 l 4.431,1.541 c 1.458,0.507 3.066,-0.271 3.574,-1.729 0.508,-1.46 -0.27,-3.068 -1.729,-3.575 z"
   id="path70" />
&#10;	</g>
  </g>
</svg>
