<?xml version="1.0" encoding="UTF-8" standalone="no"?>
<!-- Created with Inkscape (http://www.inkscape.org/) -->

<svg
   width="24.620518mm"
   height="46.778107mm"
   viewBox="0 0 24.620518 46.778107"
   version="1.1"
   id="svg1"
   xmlns:inkscape="http://www.inkscape.org/namespaces/inkscape"
   xmlns:sodipodi="http://sodipodi.sourceforge.net/DTD/sodipodi-0.dtd"
   xmlns="http://www.w3.org/2000/svg"
   xmlns:svg="http://www.w3.org/2000/svg">
  <sodipodi:namedview
     id="namedview1"
     pagecolor="#ffffff"
     bordercolor="#000000"
     borderopacity="0.25"
     inkscape:showpageshadow="2"
     inkscape:pageopacity="0.0"
     inkscape:pagecheckerboard="0"
     inkscape:deskcolor="#d1d1d1"
     inkscape:document-units="mm" />
  <defs
     id="defs1" />
  <g
     inkscape:label="Warstwa 1"
     inkscape:groupmode="layer"
     id="layer1"
     transform="translate(-85.725,-143.13958)">
    <g
       id="g50"
       transform="matrix(0.26458333,0,0,0.26458333,46.103646,72.75485)">&#10;		<g
   id="g49">&#10;			<path
   style="fill:#304047"
   d="m 157.499,330.924 v 0 c -2.983,0 -5.423,-2.44 -5.423,-5.423 v -16.358 c 0,-2.983 2.44,-5.423 5.423,-5.423 v 0 c 2.983,0 5.423,2.44 5.423,5.423 v 16.358 c 0,2.983 -2.44,5.423 -5.423,5.423 z"
   id="path30" />
&#10;			<path
   style="fill:#304047"
   d="m 235.124,330.924 v 0 c -2.983,0 -5.423,-2.44 -5.423,-5.423 v -16.358 c 0,-2.983 2.44,-5.423 5.423,-5.423 v 0 c 2.982,0 5.423,2.44 5.423,5.423 v 16.358 c 0,2.983 -2.441,5.423 -5.423,5.423 z"
   id="path31" />
&#10;			<path
   style="fill:#304047"
   d="m 157.499,420.415 v 0 c -2.983,0 -5.423,-2.44 -5.423,-5.423 v -16.358 c 0,-2.982 2.44,-5.423 5.423,-5.423 v 0 c 2.983,0 5.423,2.44 5.423,5.423 v 16.358 c 0,2.982 -2.44,5.423 -5.423,5.423 z"
   id="path32" />
&#10;			<path
   style="fill:#304047"
   d="m 235.124,420.415 v 0 c -2.983,0 -5.423,-2.44 -5.423,-5.423 v -16.358 c 0,-2.982 2.44,-5.423 5.423,-5.423 v 0 c 2.982,0 5.423,2.44 5.423,5.423 v 16.358 c 0,2.982 -2.441,5.423 -5.423,5.423 z"
   id="path33" />
&#10;			<g
   id="g39">&#10;				<path
   style="fill:#4b6570"
   d="m 196.312,266.045 v 0 c -21.347,0 -38.812,-1.528 -38.812,19.819 v 25.833 85.446 25.833 c 0,21.347 17.466,19.819 38.812,19.819 v 0 c 21.347,0 38.812,1.528 38.812,-19.819 v -25.833 -85.446 -25.833 c 0,-21.346 -17.466,-19.819 -38.812,-19.819 z"
   id="path34" />
&#10;				<path
   style="fill:#3c5059"
   d="m 162.894,437.655 c 6.772,5.808 19.234,5.142 33.417,5.142 v 0 c 14.183,0 26.645,0.666 33.417,-5.142 l -11.363,-33.472 h -44.109 z"
   id="path35" />
&#10;				<path
   style="fill:#4b6570"
   d="m 216.195,404.182 h -39.767 l -9.804,35.822 c 7.134,3.26 17.807,2.792 29.687,2.792 v 0 c 11.88,0 22.553,0.468 29.687,-2.792 z"
   id="path36" />
&#10;				<path
   style="fill:#3c5059"
   d="m 175.401,343.475 h 41.822 l 14.422,-70.26 c -6.123,-7.979 -19.679,-7.169 -35.333,-7.169 v 0 c -15.653,0 -29.21,-0.81 -35.333,7.169 z"
   id="path37" />
&#10;				<path
   style="fill:#4b6570"
   d="m 177.083,343.475 h 38.457 l 11.013,-74.37 c -7.129,-3.551 -18.049,-3.059 -30.242,-3.059 v 0 c -12.193,0 -23.113,-0.491 -30.242,3.059 z"
   id="path38" />
&#10;				<path
   style="fill:#638594"
   d="m 196.312,330.924 c -23.557,0 -35.691,8.782 -35.691,8.782 v 64.758 c 0,4.218 2.512,7.842 6.117,9.48 5.342,2.539 15.927,3.13 29.573,3.13 13.637,0 24.217,-0.591 29.563,-3.125 3.611,-1.635 6.128,-5.262 6.128,-9.485 v -64.758 c 0,0 -12.133,-8.782 -35.69,-8.782 z"
   id="path39" />
&#10;			</g>
&#10;			<path
   style="fill:#184161"
   d="m 229.091,343.424 c -4.828,-4.341 -16.824,-7.688 -32.779,-7.688 -15.955,0 -27.951,3.347 -32.779,7.688 l 11.952,13.695 c 5.891,1.474 13.232,2.059 20.828,2.059 7.595,0 14.936,-0.585 20.828,-2.059 z"
   id="path40" />
&#10;			<path
   style="fill:#184161"
   d="m 216.405,397.898 c -5.684,-1.243 -12.766,-1.156 -20.094,-1.156 -7.328,0 -14.41,-0.087 -20.094,1.156 l -11.531,10.48 c 4.658,3.662 16.231,4.458 31.624,4.458 15.393,0 26.966,-0.796 31.625,-4.458 z"
   id="path41" />
&#10;			<polygon
   style="fill:#184161"
   points="172.754,358.537 172.754,370.022 162.922,370.022 162.922,347.308 "
   id="polygon41" />
&#10;			<path
   style="fill:#184161"
   d="m 162.922,404.194 c 0,0 6.527,-6.274 9.832,-8.548 v -23.233 h -9.832 z"
   id="path42" />
&#10;			<polygon
   style="fill:#184161"
   points="219.869,358.537 219.869,370.022 229.701,370.022 229.701,347.308 "
   id="polygon42" />
&#10;			<path
   style="fill:#184161"
   d="m 229.701,404.194 c 0,0 -6.527,-6.274 -9.832,-8.548 v -23.233 h 9.832 z"
   id="path43" />
&#10;			<path
   style="fill:#fff9bd"
   d="m 160.342,274.115 c 0.754,0.309 1.576,0.483 2.438,0.483 h 10.69 c 3.56,0 6.473,-2.913 6.473,-6.473 0,-0.663 -0.102,-1.302 -0.289,-1.905 -8.717,0.502 -15.653,2.236 -19.312,7.895 z"
   id="path44" />
&#10;			<path
   style="fill:#fff9bd"
   d="m 212.969,266.219 c -0.187,0.603 -0.289,1.243 -0.289,1.905 0,3.56 2.913,6.473 6.473,6.473 h 10.689 c 0.862,0 1.684,-0.174 2.438,-0.483 -3.658,-5.658 -10.594,-7.392 -19.311,-7.895 z"
   id="path45" />
&#10;			<path
   style="fill:#ea3a00"
   d="m 169.401,441.04 c 4.568,1.381 10.204,1.71 16.472,1.768 -0.007,-2.593 -2.13,-4.714 -4.725,-4.714 h -7.376 c -1.97,0 -3.663,1.223 -4.371,2.946 z"
   id="path46" />
&#10;			<path
   style="fill:#ea3a00"
   d="m 206.75,442.808 c 6.268,-0.058 11.904,-0.387 16.472,-1.768 -0.707,-1.723 -2.401,-2.946 -4.37,-2.946 h -7.376 c -2.596,0 -4.719,2.12 -4.726,4.714 z"
   id="path47" />
&#10;			<path
   style="fill:#638594"
   d="m 153.064,349.616 7.856,-2.077 c 1.712,-0.453 2.81,-2.353 2.485,-4.169 v 0 c -0.31,-1.734 -1.819,-2.775 -3.396,-2.393 l -7.221,1.749 c -1.671,0.405 -3.038,2.205 -3.038,4.097 v 0 c -0.001,1.985 1.491,3.275 3.314,2.793 z"
   id="path48" />
&#10;			<path
   style="fill:#638594"
   d="m 232.406,340.999 7.856,2.077 c 1.712,0.453 2.81,2.353 2.485,4.169 v 0 c -0.31,1.733 -1.819,2.775 -3.396,2.393 l -7.221,-1.749 c -1.671,-0.404 -3.038,-2.205 -3.038,-4.097 v 0 c -0.001,-1.985 1.492,-3.275 3.314,-2.793 z"
   id="path49" />
&#10;		</g>
&#10;		<path
   style="opacity:0.2"
   d="m 240.262,343.076 -5.138,-1.359 v -10.794 c 2.983,0 5.423,-2.44 5.423,-5.423 v -16.358 c 0,-2.983 -2.44,-5.423 -5.423,-5.423 v -17.856 c 0,-5.762 -1.282,-9.846 -3.559,-12.754 -0.004,-0.006 -0.009,-0.011 -0.013,-0.017 -0.247,-0.315 -0.507,-0.616 -0.778,-0.903 -0.009,-0.01 -0.018,-0.02 -0.027,-0.03 -0.268,-0.283 -0.546,-0.552 -0.836,-0.809 -0.015,-0.013 -0.029,-0.026 -0.044,-0.04 -0.286,-0.252 -0.583,-0.493 -0.891,-0.722 -0.02,-0.015 -0.04,-0.03 -0.06,-0.045 -0.304,-0.224 -0.618,-0.438 -0.941,-0.641 -0.028,-0.017 -0.055,-0.035 -0.083,-0.052 -0.319,-0.197 -0.647,-0.385 -0.984,-0.563 -0.036,-0.019 -0.073,-0.038 -0.109,-0.057 -0.082,-0.042 -0.162,-0.086 -0.245,-0.127 v 0 c -0.255,-0.127 -0.515,-0.248 -0.779,-0.364 -0.045,-0.02 -0.091,-0.039 -0.136,-0.059 -0.345,-0.149 -0.697,-0.292 -1.058,-0.425 -0.056,-0.021 -0.114,-0.04 -0.17,-0.061 -0.355,-0.128 -0.715,-0.25 -1.084,-0.363 -0.069,-0.021 -0.14,-0.041 -0.209,-0.062 -0.362,-0.108 -0.73,-0.211 -1.105,-0.307 -0.082,-0.021 -0.166,-0.04 -0.249,-0.06 -0.369,-0.09 -0.741,-0.177 -1.122,-0.256 -0.096,-0.02 -0.195,-0.038 -0.293,-0.057 -0.373,-0.074 -0.749,-0.146 -1.133,-0.21 -0.112,-0.019 -0.228,-0.035 -0.341,-0.053 -0.008,-0.001 -0.017,-0.003 -0.025,-0.004 -0.01,-0.002 -0.02,-0.003 -0.03,-0.005 -0.358,-0.056 -0.718,-0.112 -1.085,-0.161 -0.125,-0.017 -0.254,-0.031 -0.38,-0.046 -0.089,-0.011 -0.178,-0.022 -0.268,-0.033 -0.012,-10e-4 -0.024,-0.003 -0.036,-0.004 -0.282,-0.034 -0.563,-0.068 -0.849,-0.098 -0.134,-0.014 -0.271,-0.025 -0.406,-0.038 -0.391,-0.038 -0.783,-0.076 -1.182,-0.107 -0.114,-0.009 -0.232,-0.016 -0.347,-0.024 -0.089,-0.007 -0.178,-0.012 -0.267,-0.019 -0.004,0 -0.008,0 -0.013,-10e-4 -0.337,-0.024 -0.674,-0.049 -1.017,-0.068 v 0 c -0.897,-0.052 -1.817,-0.089 -2.75,-0.118 -0.005,0 -0.009,0 -0.014,0 -0.42,-0.013 -0.843,-0.024 -1.27,-0.033 -0.035,-0.001 -0.07,-0.001 -0.105,-0.002 -1.177,-0.025 -2.379,-0.037 -3.604,-0.041 -0.047,0 -0.095,0 -0.142,0 -0.033,0 -0.066,0 -0.099,0 -0.076,0 -0.152,-10e-4 -0.228,-10e-4 -0.56,-0.001 -1.125,-0.001 -1.694,0 -0.037,0 -0.074,0 -0.111,0 -1.419,0.003 -2.863,0.011 -4.329,0.017 -0.077,0 -0.154,0 -0.23,10e-4 -0.5,0.002 -1.004,0.002 -1.508,0.003 v 176.754 c 0.63,10e-4 1.259,0.002 1.882,0.004 1.34,0.005 2.661,0.012 3.961,0.016 0.081,0 0.161,0 0.242,0 0.61,0.001 1.215,0.001 1.815,0 0.105,0 0.21,-10e-4 0.314,-10e-4 0.473,-0.001 0.942,-0.004 1.408,-0.008 0.042,0 0.083,-0.001 0.125,-0.001 0.066,-10e-4 0.132,-10e-4 0.199,-0.002 0.103,-10e-4 0.205,-0.002 0.307,-0.003 0.592,-0.007 1.179,-0.016 1.76,-0.029 0.004,0 0.007,0 0.011,0 0.026,-10e-4 0.053,-10e-4 0.079,-10e-4 0.038,-0.001 0.076,-0.002 0.114,-0.003 1.544,-0.035 3.042,-0.095 4.491,-0.189 0.01,-0.001 0.02,-0.001 0.029,-0.002 0.671,-0.044 1.331,-0.097 1.979,-0.158 0.012,-10e-4 0.024,-0.002 0.036,-0.003 0.043,-0.004 0.085,-0.008 0.128,-0.012 0.017,-0.002 0.034,-0.003 0.051,-0.005 0.86,-0.084 1.7,-0.184 2.517,-0.303 0.012,-0.002 0.024,-0.004 0.036,-0.006 0.539,-0.079 1.068,-0.168 1.588,-0.266 0.053,-0.01 0.106,-0.021 0.159,-0.031 0.48,-0.092 0.95,-0.193 1.411,-0.302 0.067,-0.016 0.134,-0.032 0.201,-0.048 0.029,-0.007 0.058,-0.014 0.086,-0.021 0.01,-0.003 0.021,-0.005 0.031,-0.008 0.409,-0.101 0.809,-0.21 1.203,-0.326 0.063,-0.019 0.127,-0.037 0.189,-0.056 0.44,-0.133 0.87,-0.277 1.289,-0.431 0.044,-0.016 0.089,-0.031 0.133,-0.048 0.458,-0.171 0.905,-0.354 1.337,-0.551 0,0 10e-4,0 10e-4,0 0.309,-0.141 0.607,-0.293 0.902,-0.448 0.016,-0.008 0.032,-0.016 0.048,-0.025 5.114,-2.711 8.175,-7.629 8.175,-16.555 v -2.563 c 2.983,0 5.423,-2.44 5.423,-5.423 v -16.358 c 0,-2.982 -2.44,-5.423 -5.423,-5.423 v -44.596 l 4.227,1.023 c 1.578,0.382 3.086,-0.66 3.396,-2.393 0.326,-1.814 -0.773,-3.714 -2.484,-4.167 z"
   id="path50" />
&#10;	</g>
  </g>
</svg>
