<?xml version="1.0" encoding="UTF-8" standalone="no"?>
<!-- Created with Inkscape (http://www.inkscape.org/) -->

<svg
   width="24.856031mm"
   height="42.940033mm"
   viewBox="0 0 24.856031 42.940033"
   version="1.1"
   id="svg1"
   xmlns:inkscape="http://www.inkscape.org/namespaces/inkscape"
   xmlns:sodipodi="http://sodipodi.sourceforge.net/DTD/sodipodi-0.dtd"
   xmlns="http://www.w3.org/2000/svg"
   xmlns:svg="http://www.w3.org/2000/svg">
  <sodipodi:namedview
     id="namedview1"
     pagecolor="#ffffff"
     bordercolor="#000000"
     borderopacity="0.25"
     inkscape:showpageshadow="2"
     inkscape:pageopacity="0.0"
     inkscape:pagecheckerboard="0"
     inkscape:deskcolor="#d1d1d1"
     inkscape:document-units="mm" />
  <defs
     id="defs1" />
  <g
     inkscape:label="Warstwa 1"
     inkscape:groupmode="layer"
     id="layer1"
     transform="translate(-77.258333,-119.85624)">
    <g
       id="g29"
       transform="matrix(0.26458333,0,0,0.26458333,66.02625,108.33365)">&#10;		<g
   id="g28">&#10;			<path
   style="fill:#161e21"
   d="m 89.424,199.625 v 0 c -21.347,0 -38.812,1.528 -38.812,-19.819 V 82.362 c 0,-21.347 17.465,-38.812 38.812,-38.812 v 0 c 21.347,0 38.812,17.466 38.812,38.812 v 97.444 c 0.001,21.347 -17.465,19.819 -38.812,19.819 z"
   id="path9" />
&#10;			<path
   style="fill:#4b6570"
   d="m 89.424,202.928 v 0 c -21.347,0 -38.812,1.528 -38.812,-19.819 V 85.665 c 0,-21.347 17.465,-38.812 38.812,-38.812 v 0 c 21.347,0 38.812,17.465 38.812,38.812 v 97.444 c 0.001,21.347 -17.465,19.819 -38.812,19.819 z"
   id="path10" />
&#10;			<path
   style="fill:#2e3e45"
   d="m 89.424,46.853 v 0 c -14.081,0 -26.47,7.602 -33.274,18.902 -0.069,1.298 -0.115,2.605 -0.115,3.929 0,27.221 14.949,49.288 33.39,49.288 18.44,0 33.39,-22.067 33.39,-49.288 0,-1.324 -0.046,-2.631 -0.115,-3.929 -6.806,-11.3 -19.195,-18.902 -33.276,-18.902 z"
   id="path11" />
&#10;			<path
   style="fill:#435a63"
   d="m 89.424,46.853 v 0 c -12.012,0 -22.795,5.531 -29.929,14.171 -0.308,2.813 -0.477,5.704 -0.477,8.66 0,27.221 13.613,49.288 30.406,49.288 16.793,0 30.406,-22.067 30.406,-49.288 0,-2.956 -0.17,-5.847 -0.477,-8.66 -7.134,-8.641 -17.917,-14.171 -29.929,-14.171 z"
   id="path12" />
&#10;			<ellipse
   style="fill:#2e3e45"
   cx="89.424004"
   cy="172.56799"
   rx="35.096001"
   ry="22.885"
   id="ellipse12" />
&#10;			<polygon
   style="fill:#435a63"
   points="113.732,119.404 89.424,112.527 64.038,119.606 54.328,133.774 54.328,169.92 124.52,169.92 124.52,133.774 "
   id="polygon12" />
&#10;			<rect
   x="54.327999"
   y="150.73399"
   style="fill:#2e3e45"
   width="70.193001"
   height="19.186001"
   id="rect12" />
&#10;			<path
   style="fill:#161e21"
   d="M 77.08,155.675 H 66.878 c -3.099,0 -5.634,-2.535 -5.634,-5.634 v -16.189 c 0,-3.099 2.535,-5.634 5.634,-5.634 H 77.08 c 3.099,0 5.634,2.535 5.634,5.634 v 16.189 c 0.001,3.099 -2.535,5.634 -5.634,5.634 z"
   id="path13" />
&#10;			<path
   style="fill:#161e21"
   d="m 111.97,155.675 h -10.202 c -3.099,0 -5.634,-2.535 -5.634,-5.634 v -16.189 c 0,-3.099 2.535,-5.634 5.634,-5.634 h 10.202 c 3.099,0 5.634,2.535 5.634,5.634 v 16.189 c 0,3.099 -2.535,5.634 -5.634,5.634 z"
   id="path14" />
&#10;			<path
   style="fill:#161e21"
   d="m 89.424,154.643 v 0 c -2.384,0 -4.335,-1.951 -4.335,-4.335 V 132.14 c 0,-2.384 1.951,-4.335 4.335,-4.335 v 0 c 2.384,0 4.335,1.951 4.335,4.335 v 18.168 c 0.001,2.384 -1.95,4.335 -4.335,4.335 z"
   id="path15" />
&#10;			<path
   style="fill:#2e3e45"
   d="m 89.424,150.72 v 0 c -0.908,0 -1.652,-0.743 -1.652,-1.652 v -15.69 c 0,-0.908 0.743,-1.652 1.652,-1.652 v 0 c 0.908,0 1.652,0.743 1.652,1.652 v 15.69 c 0,0.909 -0.743,1.652 -1.652,1.652 z"
   id="path16" />
&#10;			<path
   style="fill:#ffffff"
   d="m 68.865,55.849 c -3.072,1.93 -5.217,4.652 -6.151,7.43 2.908,0.363 6.291,-0.388 9.363,-2.318 3.072,-1.93 5.217,-4.653 6.151,-7.43 -2.908,-0.364 -6.291,0.387 -9.363,2.318 z"
   id="path17" />
&#10;			<path
   style="fill:#ffffff"
   d="m 109.984,55.849 c 3.072,1.93 5.217,4.652 6.151,7.43 -2.908,0.363 -6.291,-0.388 -9.363,-2.318 -3.072,-1.93 -5.217,-4.653 -6.151,-7.43 2.908,-0.364 6.291,0.387 9.363,2.318 z"
   id="path18" />
&#10;			<path
   style="fill:#2e3e45"
   d="M 112.865,136.089 H 65.984 c -5.472,0 -9.949,-1.237 -9.949,-6.709 v 0 c 0,-5.472 19.025,-13.189 21.743,-13.189 h 23.292 c 2.719,0 21.743,7.717 21.743,13.189 v 0 c 10e-4,5.472 -4.476,6.709 -9.948,6.709 z"
   id="path19" />
&#10;			<path
   style="fill:#161e21"
   d="M 101.07,116.19 H 77.778 c -2.447,0 -18.1,6.253 -21.203,11.492 1.341,3.074 5.056,3.865 9.408,3.865 h 46.881 c 4.353,0 8.067,-0.791 9.408,-3.865 -3.102,-5.239 -18.755,-11.492 -21.202,-11.492 z"
   id="path20" />
&#10;			<path
   style="fill:#4886b8"
   d="m 89.424,118.623 c 15.26,0 28.493,6.149 35.096,15.15 -2.339,-13.748 -17.155,-24.349 -35.096,-24.349 -17.941,0 -32.757,10.601 -35.096,24.349 6.603,-9.001 19.836,-15.15 35.096,-15.15 z"
   id="path21" />
&#10;			<ellipse
   style="fill:#263238"
   cx="89.424004"
   cy="169.92"
   rx="35.096001"
   ry="12.387"
   id="ellipse21" />
&#10;			<path
   style="fill:#2e3e45"
   d="m 124.52,169.92 c 0,3.206 -15.713,5.804 -35.096,5.804 -19.383,0 -35.096,-2.599 -35.096,-5.804 0,-3.206 15.713,-5.805 35.096,-5.805 19.383,0 35.096,2.599 35.096,5.805 z"
   id="path22" />
&#10;			<path
   style="fill:#d43939"
   d="m 61.554,195.392 c -2.175,0 -4.137,0.936 -5.519,2.419 3.216,2.743 7.706,4.038 13.053,4.637 -0.263,-3.924 -3.547,-7.056 -7.534,-7.056 z"
   id="path23" />
&#10;			<path
   style="fill:#d43939"
   d="m 109.761,202.448 c 5.347,-0.599 9.837,-1.894 13.053,-4.637 -1.382,-1.482 -3.344,-2.419 -5.519,-2.419 -3.988,0 -7.272,3.132 -7.534,7.056 z"
   id="path24" />
&#10;			<path
   style="fill:#2e3e45"
   d="M 101.605,205.842 H 77.244 c -1.59,0 -2.89,-1.301 -2.89,-2.89 v 0 c 0,-1.59 1.301,-2.89 2.89,-2.89 h 24.361 c 1.59,0 2.89,1.301 2.89,2.89 v 0 c 0,1.59 -1.301,2.89 -2.89,2.89 z"
   id="path25" />
&#10;			<path
   style="fill:#2e3e45"
   d="M 78.754,140.295 H 65.205 c -0.794,0 -1.444,-0.65 -1.444,-1.444 v 0 c 0,-0.794 0.65,-1.444 1.444,-1.444 h 13.549 c 0.794,0 1.444,0.65 1.444,1.444 v 0 c -10e-4,0.794 -0.65,1.444 -1.444,1.444 z"
   id="path26" />
&#10;			<path
   style="fill:#2e3e45"
   d="m 46.181,141.685 6.262,-2.178 c 1.458,-0.507 2.237,-2.115 1.729,-3.574 v 0 c -0.507,-1.458 -2.115,-2.237 -3.574,-1.729 l -6.262,2.178 c -1.458,0.507 -2.236,2.115 -1.729,3.574 v 0 c 0.507,1.458 2.116,2.237 3.574,1.729 z"
   id="path27" />
&#10;			<path
   style="fill:#2e3e45"
   d="m 132.667,141.685 -6.262,-2.178 c -1.458,-0.507 -2.236,-2.115 -1.729,-3.574 v 0 c 0.507,-1.458 2.115,-2.237 3.574,-1.729 l 6.262,2.178 c 1.458,0.507 2.236,2.115 1.729,3.574 v 0 c -0.507,1.458 -2.115,2.237 -3.574,1.729 z"
   id="path28" />
&#10;		</g>
&#10;		<path
   style="opacity:0.2"
   d="m 101.605,205.842 c 1.59,0 2.89,-1.301 2.89,-2.89 0,-0.04 -0.01,-0.078 -0.012,-0.118 1.836,-0.075 3.597,-0.198 5.278,-0.386 0,0 0.001,0 0.001,0 0.624,-0.07 1.233,-0.152 1.833,-0.241 0.093,-0.014 0.186,-0.029 0.278,-0.043 0.541,-0.085 1.072,-0.178 1.592,-0.282 0.068,-0.014 0.138,-0.026 0.206,-0.04 1.782,-0.365 3.434,-0.851 4.94,-1.489 0.046,-0.02 0.092,-0.04 0.138,-0.06 0.479,-0.207 0.944,-0.43 1.392,-0.671 0.013,-0.007 0.027,-0.014 0.04,-0.02 0.952,-0.515 1.832,-1.108 2.632,-1.79 v 0 c 3.438,-2.933 5.423,-7.518 5.423,-14.702 v -3.303 -39.661 l 4.431,1.541 c 1.458,0.507 3.066,-0.271 3.574,-1.729 0.507,-1.458 -0.271,-3.067 -1.729,-3.574 l -6.262,-2.178 c -0.004,-10e-4 -0.008,-0.002 -0.013,-0.003 V 85.665 82.362 c 0,-21.347 -17.466,-38.812 -38.812,-38.812 v 162.293 h 12.18 z"
   id="path29" />
&#10;	</g>
  </g>
</svg>
