<?xml version="1.0" encoding="UTF-8" standalone="no"?>
<!-- Created with Inkscape (http://www.inkscape.org/) -->

<svg
   width="1980.0001"
   height="1200"
   viewBox="0 0 523.87501 317.5"
   version="1.1"
   id="svg1"
   xmlns:inkscape="http://www.inkscape.org/namespaces/inkscape"
   xmlns:sodipodi="http://sodipodi.sourceforge.net/DTD/sodipodi-0.dtd"
   xmlns:xlink="http://www.w3.org/1999/xlink"
   xmlns="http://www.w3.org/2000/svg"
   xmlns:svg="http://www.w3.org/2000/svg">
  <sodipodi:namedview
     id="namedview1"
     pagecolor="#ffffff"
     bordercolor="#000000"
     borderopacity="0.25"
     inkscape:showpageshadow="2"
     inkscape:pageopacity="0.0"
     inkscape:pagecheckerboard="0"
     inkscape:deskcolor="#d1d1d1"
     inkscape:document-units="mm" />
  <defs
     id="defs1">
    <pattern
       id="SVGID_23_"
       xlink:href="#SVGID_7_"
       patternTransform="matrix(0.7155 -0.7071 -0.7155 -0.7071 -4821.4717 -11470.9785)">&#10;		</pattern>
    <pattern
       id="SVGID_24_"
       xlink:href="#SVGID_8_"
       patternTransform="matrix(-0.7071 -0.7155 -0.7071 0.7155 -29699.418 10138.5039)">&#10;		</pattern>
    <pattern
       id="SVGID_17_"
       xlink:href="#SVGID_1_"
       patternTransform="matrix(0.7071 0.7155 0.7071 -0.7155 -4167.8057 -11694.9961)">&#10;		</pattern>
    <pattern
       id="SVGID_18_"
       xlink:href="#SVGID_2_"
       patternTransform="matrix(-0.7155 0.7071 0.7155 0.7071 -29167.8105 9623.5859)">&#10;		</pattern>
    <pattern
       id="SVGID_21_"
       xlink:href="#SVGID_5_"
       patternTransform="matrix(1.0335 -1.0214 -1.0335 -1.0214 1026.002 -16349.666)">&#10;		</pattern>
    <pattern
       id="SVGID_20_"
       xlink:href="#SVGID_4_"
       patternTransform="matrix(-1.0214 -1.0335 -1.0214 1.0335 -35064.582 15514.1602)">&#10;		</pattern>
    <pattern
       id="SVGID_22_"
       xlink:href="#SVGID_6_"
       patternTransform="matrix(1.0214 1.0335 1.0214 -1.0335 1025.8389 -16822.1211)">&#10;		</pattern>
  </defs>
  <g
     inkscape:label="Warstwa 1"
     inkscape:groupmode="layer"
     id="layer1">
    <g
       id="g18"
       transform="translate(-83.078839,257.83378)">
      <g
         id="use5"
         transform="matrix(0.49906566,0,0,0.49906566,56.311456,-830.5616)">&#10;	<g
   id="g218">&#10;		<pattern
   id="pattern218"
   xlink:href="#SVGID_5_"
   patternTransform="matrix(1.0335 -1.0214 -1.0335 -1.0214 1026.002 -16349.666)">&#10;		</pattern>
&#10;		<path
   fill="url(#SVGID_21_)"
   d="M 58.771,1464 H 74.31 L 170.293,1274.292 360,1178.311 v -15.537 c -15.134,-4.938 -39.34,-10.772 -69.333,-10.772 -51.725,0 -120.595,17.37 -172.501,69.342 l -0.007,-0.01 c -0.133,0.133 -0.259,0.27 -0.392,0.399 -0.144,0.144 -0.29,0.28 -0.434,0.426 l 0.008,0.01 C 65.369,1274.072 48,1342.943 48,1394.666 c 0,29.994 5.833,54.199 10.771,69.334 z"
   id="path218" />
&#10;	</g>
&#10;	<path
   fill="#4d4d4d"
   d="m 240,1464 c 0,-66.274 53.726,-120 120,-120 v -192 c -172.312,0 -312,139.688 -312,312 z"
   id="path219" />
&#10;	<path
   fill="#e6e6e6"
   d="m 54,1464 c 0,-168.996 137.004,-306 306,-306 v -3 c -170.654,0 -309,138.346 -309,309 z"
   id="path220" />
&#10;	<path
   fill="#e6e6e6"
   d="m 237,1464 c 0,-67.927 55.073,-123 123,-123 v -3 c -69.585,0 -126,56.415 -126,126 z"
   id="path221" />
&#10;</g>
      <g
         id="use6"
         transform="matrix(0.49906566,0,0,0.49906566,56.318792,-836.99127)">&#10;	<g
   id="g226">&#10;		&#10;			<pattern
   id="pattern225"
   xlink:href="#SVGID_4_"
   patternTransform="matrix(-1.0214 -1.0335 -1.0214 1.0335 -35064.582 15514.1602)">&#10;		</pattern>
&#10;		<path
   fill="url(#SVGID_20_)"
   d="m 360,1777.229 v -15.537 L 170.292,1665.709 74.311,1476 H 58.772 C 53.834,1491.134 48,1515.34 48,1545.333 c 0,51.725 17.37,120.595 69.342,172.501 l -0.009,0.01 c 0.133,0.133 0.269,0.259 0.399,0.392 0.144,0.145 0.281,0.291 0.426,0.435 l 0.009,-0.01 c 51.905,51.971 120.776,69.34 172.499,69.34 29.994,0 54.199,-5.833 69.334,-10.771 z"
   id="path226" />
&#10;	</g>
&#10;	<path
   fill="#4d4d4d"
   d="m 360,1596 c -66.274,0 -120,-53.726 -120,-120 H 48 c 0,172.312 139.688,312 312,312 z"
   id="path227" />
&#10;	<path
   fill="#e6e6e6"
   d="M 360,1782 C 191.004,1782 54,1644.996 54,1476 h -3 c 0,170.654 138.346,309 309,309 z"
   id="path228" />
&#10;	<path
   fill="#e6e6e6"
   d="m 360,1599 c -67.927,0 -123,-55.073 -123,-123 h -3 c 0,69.585 56.415,126 126,126 z"
   id="path229" />
&#10;</g>
      <g
         id="use7"
         transform="matrix(0.49883465,0,0,0.49883465,200.05556,-614.77441)">&#10;	<g
   id="g111">&#10;		<rect
   x="72"
   y="720"
   fill="#4d4d4d"
   width="192"
   height="192"
   id="rect108" />
&#10;		<rect
   x="72"
   y="722.875"
   fill="#e6e6e6"
   width="26"
   height="3.25"
   id="rect109" />
&#10;		<rect
   x="72"
   y="906"
   fill="#e6e6e6"
   width="192"
   height="3"
   id="rect110" />
&#10;		<g
   id="g110">&#10;			<path
   fill="#e6e6e6"
   d="m 158,765 c -24,0 -36,-42 -60,-42 l -2,3 c 24,0 36,42 60,42 z"
   id="path110" />
&#10;		</g>
&#10;		<rect
   x="156"
   y="765"
   fill="#e6e6e6"
   width="108"
   height="3"
   id="rect111" />
&#10;	</g>
&#10;	<g
   id="g120">&#10;		<path
   fill="#e6e6e6"
   d="m 104,720 c 2.868,0.643 5.563,1.891 8.143,3.543 L 115.686,720 Z"
   id="path111" />
&#10;		<path
   fill="#c1272d"
   d="m 115.685,720 -3.543,3.543 c 3.215,2.061 6.245,4.762 9.184,7.789 L 132.657,720 Z"
   id="path112" />
&#10;		<g
   id="g119">&#10;			<polygon
   fill="#e6e6e6"
   points="264,758.363 260.863,761.5 263.519,761.5 264,761.5 "
   id="polygon112" />
&#10;			<polygon
   fill="#e6e6e6"
   points="264,741.393 264,724.422 231.039,757.383 226.921,761.5 235.156,761.5 243.892,761.5 "
   id="polygon113" />
&#10;			<polygon
   fill="#c1272d"
   points="251.451,720 222.553,748.898 209.951,761.5 226.921,761.5 231.039,757.383 264,724.422 264,720 "
   id="polygon114" />
&#10;			<polygon
   fill="#c1272d"
   points="264,758.363 264,741.393 243.892,761.5 260.863,761.5 "
   id="polygon115" />
&#10;			<path
   fill="#e6e6e6"
   d="m 132.657,720 -11.331,11.332 c 2.723,2.805 5.368,5.875 8.012,8.959 L 149.627,720 Z"
   id="path115" />
&#10;			<path
   fill="#e6e6e6"
   d="m 166.597,720 -29.272,29.273 c 2.913,3.034 5.913,5.768 9.091,7.879 L 183.568,720 Z"
   id="path116" />
&#10;			<path
   fill="#e6e6e6"
   d="M 205.583,731.926 217.508,720 h -16.97 l -3.441,3.441 v 0 l -38.035,38.034 c 0.153,0.005 0.303,0.023 0.457,0.023 h 16.49 z"
   id="path117" />
&#10;			<polygon
   fill="#e6e6e6"
   points="222.553,748.898 251.451,720 234.48,720 214.068,740.412 192.98,761.5 209.951,761.5 "
   id="polygon117" />
&#10;			<path
   fill="#c1272d"
   d="m 149.627,720 -20.29,20.291 c 2.639,3.078 5.276,6.156 7.987,8.982 L 166.597,720 Z"
   id="path118" />
&#10;			<path
   fill="#c1272d"
   d="M 197.097,723.441 200.538,720 h -16.971 l -37.152,37.152 c 3.889,2.584 8.049,4.221 12.646,4.323 z"
   id="path119" />
&#10;			<polygon
   fill="#c1272d"
   points="205.583,731.926 205.583,731.928 176.009,761.5 192.98,761.5 214.068,740.412 234.48,720 217.508,720 "
   id="polygon119" />
&#10;		</g>
&#10;	</g>
&#10;</g>
      <g
         id="use8"
         transform="matrix(0.49883465,0,0,0.49883465,295.78662,-716.53389)">&#10;	<g
   id="g137">&#10;		<rect
   x="72"
   y="924"
   fill="#4d4d4d"
   width="192"
   height="192"
   id="rect134" />
&#10;		<rect
   x="238"
   y="926.875"
   fill="#e6e6e6"
   width="26"
   height="3.25"
   id="rect135" />
&#10;		<rect
   x="72"
   y="1110"
   fill="#e6e6e6"
   width="192"
   height="3"
   id="rect136" />
&#10;		<g
   id="g136">&#10;			<path
   fill="#e6e6e6"
   d="m 178,969 c 24,0 36,-42 60,-42 l 2,3 c -24,0 -36,42 -60,42 z"
   id="path136" />
&#10;		</g>
&#10;		<rect
   x="72"
   y="969"
   fill="#e6e6e6"
   width="108"
   height="3"
   id="rect137" />
&#10;	</g>
&#10;	<g
   id="g145">&#10;		<polygon
   fill="#e6e6e6"
   points="72,965.5 85.833,965.5 123.891,927.441 127.332,924 110.362,924 72,962.363 "
   id="polygon137" />
&#10;		<polygon
   fill="#e6e6e6"
   points="72,928.422 72,945.393 93.391,924 76.421,924 "
   id="polygon138" />
&#10;		<polygon
   fill="#c1272d"
   points="72,928.422 76.421,924 72,924 "
   id="polygon139" />
&#10;		<polygon
   fill="#c1272d"
   points="72,945.393 72,962.363 110.362,924 93.391,924 "
   id="polygon140" />
&#10;		<polygon
   fill="#e6e6e6"
   points="119.773,965.5 140.862,944.412 161.273,924 144.303,924 132.376,935.926 132.376,935.928 102.803,965.5 "
   id="polygon141" />
&#10;		<polygon
   fill="#e6e6e6"
   points="149.347,952.898 136.744,965.5 153.714,965.5 157.833,961.383 195.214,924 178.245,924 "
   id="polygon142" />
&#10;		<path
   fill="#e6e6e6"
   d="m 175.519,965.5 c 21.484,0 33.358,-33.631 52.826,-40.689 L 229.156,924 h -16.971 l -41.5,41.5 z"
   id="path142" />
&#10;		<polygon
   fill="#c1272d"
   points="102.803,965.5 132.376,935.928 132.376,935.926 144.303,924 127.332,924 123.891,927.441 85.833,965.5 "
   id="polygon143" />
&#10;		<polygon
   fill="#c1272d"
   points="140.862,944.412 119.773,965.5 136.744,965.5 149.347,952.898 178.245,924 161.273,924 "
   id="polygon144" />
&#10;		<polygon
   fill="#c1272d"
   points="157.833,961.383 153.714,965.5 161.951,965.5 170.685,965.5 212.185,924 195.214,924 "
   id="polygon145" />
&#10;		<path
   fill="#c1272d"
   d="m 231.039,924 h -1.883 l -0.811,0.811 c 0.883,-0.321 1.778,-0.606 2.694,-0.811 z"
   id="path145" />
&#10;	</g>
&#10;</g>
      <g
         id="use27"
         transform="matrix(0.49787635,0,0,0.49787635,-123.77623,-727.78725)">&#10;	<g
   id="g162">&#10;		&#10;			<pattern
   id="pattern162"
   xlink:href="#SVGID_8_"
   patternTransform="matrix(-0.7071 -0.7155 -0.7071 0.7155 -29699.418 10138.5039)">&#10;		</pattern>
&#10;		<path
   fill="url(#SVGID_24_)"
   d="m 1200,1564.543 v -10.757 L 1068.664,1487.336 1002.215,1356 h -10.758 c -3.418,10.479 -7.457,27.235 -7.457,48 0,35.811 12.025,83.488 48.006,119.424 l -0.01,0.01 c 0.092,0.093 0.187,0.179 0.275,0.271 0.1,0.1 0.194,0.201 0.295,0.301 l 0.01,-0.01 c 35.936,35.98 83.615,48.005 119.424,48.005 20.764,0 37.521,-4.038 48,-7.457 z"
   id="path162" />
&#10;	</g>
&#10;	<g
   id="g165">&#10;		<path
   fill="#4d4d4d"
   d="M 1176,1356 H 984 c 0,119.294 96.707,216 216,216 v -192 c -13.256,0 -24,-10.745 -24,-24 z"
   id="path163" />
&#10;		<path
   fill="#e6e6e6"
   d="m 1200,1569 v -3 c -115.979,0 -210,-94.021 -210,-210 h -3 c 0,117.636 95.363,213 213,213 z"
   id="path164" />
&#10;		<path
   fill="#e6e6e6"
   d="m 1200,1386 v -3 c -14.91,0 -27,-12.093 -27,-27 h -3 c 0,16.564 13.432,30 30,30 z"
   id="path165" />
&#10;	</g>
&#10;</g>
      <g
         id="use31"
         transform="matrix(0.49832811,0,0,0.49832811,-368.35447,-728.08038)">&#10;	<g
   id="g190">&#10;		<pattern
   id="pattern190"
   xlink:href="#SVGID_2_"
   patternTransform="matrix(-0.7155 0.7071 0.7155 0.7071 -29167.8105 9623.5859)">&#10;		</pattern>
&#10;		<path
   fill="url(#SVGID_18_)"
   d="m 1420.543,1356 h -10.758 l -66.449,131.336 -131.336,66.449 v 10.757 c 10.477,3.419 27.234,7.458 48,7.458 35.809,0 83.488,-12.025 119.424,-48.006 v 0.01 c 0.092,-0.092 0.181,-0.186 0.271,-0.276 0.1,-0.1 0.201,-0.193 0.301,-0.295 l -0.01,-0.01 C 1415.974,1487.488 1428,1439.809 1428,1404 c 0,-20.765 -4.039,-37.521 -7.457,-48 z"
   id="path190" />
&#10;	</g>
&#10;	<g
   id="g193">&#10;		<path
   fill="#4d4d4d"
   d="m 1212,1380 v 192 c 119.293,0 216,-96.707 216,-216 h -192 c 0,13.255 -10.746,24 -24,24 z"
   id="path191" />
&#10;		<path
   fill="#e6e6e6"
   d="m 1425,1356 h -3 c 0,115.979 -94.023,210 -210,210 v 3 c 117.635,0 213,-95.364 213,-213 z"
   id="path192" />
&#10;		<path
   fill="#e6e6e6"
   d="m 1242,1356 h -3 c 0,14.91 -12.094,27 -27,27 v 3 c 16.564,0 30,-13.433 30,-30 z"
   id="path193" />
&#10;	</g>
&#10;</g>
      <g
         id="use32"
         transform="matrix(0.48519629,0,0,0.50139563,246.87721,-833.46022)">&#10;	<g
   id="g198">&#10;		<pattern
   id="pattern198"
   xlink:href="#SVGID_6_"
   patternTransform="matrix(1.0214 1.0335 1.0214 -1.0335 1025.8389 -16822.1211)">&#10;		</pattern>
&#10;		<path
   fill="url(#SVGID_22_)"
   d="m 372,1162.771 v 15.537 l 189.708,95.983 95.981,189.709 h 15.537 c 4.938,-15.134 10.772,-39.34 10.772,-69.333 0,-51.725 -17.37,-120.595 -69.342,-172.501 l 0.009,-0.01 c -0.133,-0.133 -0.269,-0.259 -0.399,-0.392 -0.144,-0.145 -0.28,-0.291 -0.426,-0.435 l -0.009,0.01 C 561.928,1169.369 493.057,1152 441.334,1152 c -29.994,0 -54.199,5.833 -69.334,10.771 z"
   id="path198" />
&#10;	</g>
&#10;	<path
   fill="#4d4d4d"
   d="m 372,1344 c 66.274,0 120,53.726 120,120 h 192 c 0,-172.312 -139.688,-312 -312,-312 z"
   id="path199" />
&#10;	<path
   fill="#e6e6e6"
   d="m 372,1158 c 168.996,0 306,137.004 306,306 h 3 c 0,-170.654 -138.346,-309 -309,-309 z"
   id="path200" />
&#10;	<path
   fill="#e6e6e6"
   d="m 372,1341 c 67.927,0 123,55.073 123,123 h 3 c 0,-69.585 -56.415,-126 -126,-126 z"
   id="path201" />
&#10;</g>
      <g
         id="use34"
         transform="matrix(0.49840134,0,0,0.49588916,-242.76731,-718.63751)">&#10;	<g
   id="g170">&#10;		&#10;			<pattern
   id="pattern170"
   xlink:href="#SVGID_7_"
   patternTransform="matrix(0.7155 -0.7071 -0.7155 -0.7071 -4821.4717 -11470.9785)">&#10;		</pattern>
&#10;		<path
   fill="url(#SVGID_23_)"
   d="m 991.457,1344 h 10.756 l 66.451,-131.336 131.336,-66.449 v -10.757 c -10.479,-3.419 -27.236,-7.458 -48,-7.458 -35.811,0 -83.488,12.025 -119.424,48.006 l -0.01,-0.01 c -0.092,0.092 -0.178,0.186 -0.271,0.276 -0.1,0.1 -0.201,0.193 -0.301,0.295 l 0.01,0.01 C 996.023,1212.512 984,1260.191 984,1296 c 0,20.765 4.037,37.521 7.457,48 z"
   id="path170" />
&#10;	</g>
&#10;	<g
   id="g173">&#10;		<path
   fill="#4d4d4d"
   d="m 1200,1320 v -192 c -119.295,0 -216,96.707 -216,216 h 192 c 0,-13.255 10.744,-24 24,-24 z"
   id="path171" />
&#10;		<path
   fill="#e6e6e6"
   d="m 987,1344 h 3 c 0,-115.979 94.021,-210 210,-210 v -3 c -117.637,0 -213,95.364 -213,213 z"
   id="path172" />
&#10;		<path
   fill="#e6e6e6"
   d="m 1170,1344 h 3 c 0,-14.91 12.092,-27 27,-27 v -3 c -16.566,0 -30,13.433 -30,30 z"
   id="path173" />
&#10;	</g>
&#10;</g>
      <g
         id="use36"
         transform="matrix(0.48782796,0,0,0.49787668,-117.66098,-727.89261)">&#10;	<g
   id="g194">&#10;		<pattern
   id="pattern194"
   xlink:href="#SVGID_2_"
   patternTransform="matrix(-0.7155 0.7071 0.7155 0.7071 -29167.8105 9623.5859)">&#10;		</pattern>
&#10;		<path
   fill="url(#SVGID_18_)"
   d="m 1420.543,1356 h -10.758 l -66.449,131.336 -131.336,66.449 v 10.757 c 10.477,3.419 27.234,7.458 48,7.458 35.809,0 83.488,-12.025 119.424,-48.006 v 0.01 c 0.092,-0.092 0.181,-0.186 0.271,-0.276 0.1,-0.1 0.201,-0.193 0.301,-0.295 l -0.01,-0.01 C 1415.974,1487.488 1428,1439.809 1428,1404 c 0,-20.765 -4.039,-37.521 -7.457,-48 z"
   id="path194" />
&#10;	</g>
&#10;	<g
   id="g197">&#10;		<path
   fill="#4d4d4d"
   d="m 1212,1380 v 192 c 119.293,0 216,-96.707 216,-216 h -192 c 0,13.255 -10.746,24 -24,24 z"
   id="path195" />
&#10;		<path
   fill="#e6e6e6"
   d="m 1425,1356 h -3 c 0,115.979 -94.023,210 -210,210 v 3 c 117.635,0 213,-95.364 213,-213 z"
   id="path196" />
&#10;		<path
   fill="#e6e6e6"
   d="m 1242,1356 h -3 c 0,14.91 -12.094,27 -27,27 v 3 c 16.564,0 30,-13.433 30,-30 z"
   id="path197" />
&#10;	</g>
&#10;</g>
      <g
         id="use37"
         transform="matrix(0.49644941,0,0,0.49644941,-247.27239,-719.41889)">&#10;	<g
   id="g214">&#10;		&#10;			<pattern
   id="pattern214"
   xlink:href="#SVGID_1_"
   patternTransform="matrix(0.7071 0.7155 0.7071 -0.7155 -4167.8057 -11694.9961)">&#10;		</pattern>
&#10;		<path
   fill="url(#SVGID_17_)"
   d="m 1212,1135.457 v 10.757 l 131.336,66.45 66.449,131.336 h 10.756 c 3.42,-10.479 7.459,-27.235 7.459,-48 0,-35.811 -12.025,-83.488 -48.006,-119.424 l 0.01,-0.01 c -0.092,-0.093 -0.186,-0.179 -0.277,-0.271 -0.1,-0.1 -0.192,-0.201 -0.295,-0.301 l -0.01,0.01 C 1343.488,1140.024 1295.809,1128 1260,1128 c -20.766,0 -37.523,4.038 -48,7.457 z"
   id="path214" />
&#10;	</g>
&#10;	<g
   id="g217">&#10;		<path
   fill="#4d4d4d"
   d="m 1236,1344 h 192 c 0,-119.294 -96.707,-216 -216,-216 v 192 c 13.254,0 24,10.745 24,24 z"
   id="path215" />
&#10;		<path
   fill="#e6e6e6"
   d="m 1212,1131 v 3 c 115.977,0 210,94.021 210,210 h 3 c 0,-117.636 -95.365,-213 -213,-213 z"
   id="path216" />
&#10;		<path
   fill="#e6e6e6"
   d="m 1212,1314 v 3 c 14.91,0 27,12.093 27,27 h 3 c 0,-16.564 -13.434,-30 -30,-30 z"
   id="path217" />
&#10;	</g>
&#10;</g>
      <g
         id="use41"
         transform="matrix(0,0.26895554,-0.48751523,0,730.79337,-288.22387)">&#10;	<rect
   x="683.99902"
   y="312"
   fill="#4d4d4d"
   width="192"
   height="192"
   id="rect264" />
&#10;	<rect
   x="683.99902"
   y="315"
   fill="#e6e6e6"
   width="192"
   height="3"
   id="rect265" />
&#10;	<rect
   x="683.99902"
   y="498"
   fill="#e6e6e6"
   width="192"
   height="3"
   id="rect266" />
&#10;</g>
    </g>
  </g>
</svg>
