<?xml version="1.0" encoding="UTF-8" standalone="no"?>
<!-- Created with Inkscape (http://www.inkscape.org/) -->

<svg
   width="25.261877mm"
   height="43.961845mm"
   viewBox="0 0 25.261877 43.961845"
   version="1.1"
   id="svg1"
   xmlns:inkscape="http://www.inkscape.org/namespaces/inkscape"
   xmlns:sodipodi="http://sodipodi.sourceforge.net/DTD/sodipodi-0.dtd"
   xmlns="http://www.w3.org/2000/svg"
   xmlns:svg="http://www.w3.org/2000/svg">
  <sodipodi:namedview
     id="namedview1"
     pagecolor="#ffffff"
     bordercolor="#000000"
     borderopacity="0.25"
     inkscape:showpageshadow="2"
     inkscape:pageopacity="0.0"
     inkscape:pagecheckerboard="0"
     inkscape:deskcolor="#d1d1d1"
     inkscape:document-units="mm" />
  <defs
     id="defs1" />
  <g
     inkscape:label="Warstwa 1"
     inkscape:groupmode="layer"
     id="layer1"
     transform="translate(-184.94376,-63.500002)">
    <g
       id="g130"
       transform="matrix(0.26458333,0,0,0.26458333,88.616896,-9.936692)">&#10;		<g
   id="g129">&#10;			<g
   id="g124">&#10;				<path
   style="fill:#78251f"
   d="m 411.809,437.493 v 0 c -21.347,0 -38.813,1.528 -38.813,-19.819 V 306.395 c 0,-21.347 17.466,-28.838 38.812,-28.838 v 0 c 21.347,0 38.812,7.491 38.812,28.838 v 111.279 c 10e-4,21.347 -17.464,19.819 -38.811,19.819 z"
   id="path112" />
&#10;				<path
   style="fill:#e1453a"
   d="m 411.809,440.796 v 0 c -21.347,0 -38.813,1.528 -38.813,-19.819 V 309.698 c 0,-21.347 17.466,-28.838 38.812,-28.838 v 0 c 21.347,0 38.812,7.492 38.812,28.838 v 111.279 c 10e-4,21.347 -17.464,19.819 -38.811,19.819 z"
   id="path113" />
&#10;				<path
   style="fill:#ffffff"
   d="m 378.346,292.713 c 5.247,-0.709 10.268,-1.846 11.996,-3.428 2.027,-1.856 3.714,-4.124 5.033,-6.592 -7.114,1.799 -13.058,5.014 -17.029,10.02 z"
   id="path114" />
&#10;				<path
   style="fill:#ffffff"
   d="m 428.243,282.693 c 1.319,2.467 3.006,4.736 5.033,6.592 1.728,1.582 6.749,2.719 11.996,3.428 -3.971,-5.006 -9.915,-8.221 -17.029,-10.02 z"
   id="path115" />
&#10;				<path
   style="fill:#bf3b31"
   d="m 433.673,284.029 c -6.237,-4.281 -13.77,-2.262 -21.864,-2.262 v 0 c -8.094,0 -15.626,-2.019 -21.864,2.262 v 78.324 h 43.728 z"
   id="path116" />
&#10;				<path
   style="fill:#e1453a"
   d="m 427.153,281.326 c -4.713,-2.046 -9.901,-1.956 -15.344,-1.956 v 0 c -5.443,0 -10.631,-0.09 -15.344,1.956 l -1.986,81.933 h 34.661 z"
   id="path117" />
&#10;				<path
   style="fill:#9c3028"
   d="m 433.899,417.105 h -44.181 c -7.48,0 -13.6,6.12 -13.6,13.6 v 2.452 c 5.944,8.49 19.731,7.639 35.691,7.639 v 0 c 15.959,0 29.747,0.851 35.691,-7.639 v -2.452 c -10e-4,-7.479 -6.121,-13.6 -13.601,-13.6 z"
   id="path118" />
&#10;				<path
   style="fill:#e1453a"
   d="m 432.521,419.996 h -41.424 c -7.013,0 -12.751,6.12 -12.751,13.6 v 2.017 c 6.761,5.852 19.248,5.183 33.463,5.183 v 0 c 14.216,0 26.702,0.669 33.463,-5.183 v -2.017 c 0,-7.48 -5.738,-13.6 -12.751,-13.6 z"
   id="path119" />
&#10;				<path
   style="fill:#e1847e"
   d="m 437.084,412.88 h -50.55 c -5.752,0 -10.415,-4.663 -10.415,-10.415 v -64.758 c 0,0 12.133,-8.782 35.691,-8.782 23.557,0 35.691,8.782 35.691,8.782 v 64.758 c -0.002,5.751 -4.665,10.415 -10.417,10.415 z"
   id="path120" />
&#10;				<path
   style="fill:#a12800"
   d="m 383.938,433.261 c -2.175,0 -4.136,0.936 -5.519,2.419 3.216,2.743 7.706,4.038 13.053,4.637 -0.263,-3.925 -3.546,-7.056 -7.534,-7.056 z"
   id="path121" />
&#10;				<path
   style="fill:#a12800"
   d="m 432.145,440.316 c 5.347,-0.599 9.837,-1.894 13.053,-4.637 -1.383,-1.483 -3.344,-2.419 -5.519,-2.419 -3.987,0.001 -7.271,3.132 -7.534,7.056 z"
   id="path122" />
&#10;				<path
   style="fill:#78251f"
   d="m 423.989,443.711 h -24.361 c -1.59,0 -2.89,-1.301 -2.89,-2.89 v 0 c 0,-1.59 1.301,-2.89 2.89,-2.89 h 24.361 c 1.59,0 2.89,1.301 2.89,2.89 v 0 c 10e-4,1.589 -1.3,2.89 -2.89,2.89 z"
   id="path123" />
&#10;				<polygon
   style="fill:#e1847e"
   points="365.914,362.107 376.118,358.558 376.118,352.613 364.07,356.804 "
   id="polygon123" />
&#10;				<polygon
   style="fill:#e1847e"
   points="457.703,362.107 447.499,358.558 447.499,352.613 459.548,356.804 "
   id="polygon124" />
&#10;			</g>
&#10;			<path
   style="fill:#184161"
   d="m 444.588,341.424 c -4.829,-4.341 -16.824,-7.688 -32.779,-7.688 -15.955,0 -27.951,3.347 -32.779,7.688 l 11.952,13.695 c 5.891,1.474 13.232,2.325 20.828,2.325 7.595,0 14.936,-0.851 20.828,-2.325 z"
   id="path124" />
&#10;			<path
   style="fill:#184161"
   d="m 431.903,396.171 c -5.684,-1.072 -12.766,-1.691 -20.094,-1.691 -7.328,0 -14.41,0.619 -20.094,1.691 l -11.531,9.035 c 4.658,3.157 16.231,3.843 31.624,3.843 15.393,0 26.966,-0.686 31.625,-3.843 z"
   id="path125" />
&#10;			<polygon
   style="fill:#184161"
   points="388.252,356.537 388.252,368.022 378.419,368.022 378.419,345.308 "
   id="polygon125" />
&#10;			<path
   style="fill:#184161"
   d="m 378.419,402.194 c 0,0 6.526,-6.274 9.832,-8.548 v -23.233 h -9.832 z"
   id="path126" />
&#10;			<polygon
   style="fill:#184161"
   points="435.366,356.537 435.366,368.022 445.198,368.022 445.198,345.308 "
   id="polygon126" />
&#10;			<path
   style="fill:#184161"
   d="m 445.198,402.194 c 0,0 -6.527,-6.274 -9.832,-8.548 v -23.233 h 9.832 z"
   id="path127" />
&#10;			<path
   style="fill:#bd625c"
   d="m 429.121,371.451 h -34.624 c -1.119,0 -2.034,-0.915 -2.034,-2.034 v -7.431 c 0,-1.119 0.915,-2.034 2.034,-2.034 h 34.624 c 1.119,0 2.034,0.915 2.034,2.034 v 7.431 c 0,1.119 -0.916,2.034 -2.034,2.034 z"
   id="path128" />
&#10;			<path
   style="fill:#184161"
   d="m 427.492,369.909 h -31.367 c -0.906,0 -1.647,-0.741 -1.647,-1.647 v -5.121 c 0,-0.906 0.741,-1.647 1.647,-1.647 h 31.367 c 0.906,0 1.647,0.741 1.647,1.647 v 5.121 c 0,0.906 -0.741,1.647 -1.647,1.647 z"
   id="path129" />
&#10;		</g>
&#10;		<path
   style="opacity:0.2"
   d="m 423.989,443.711 c 1.59,0 2.89,-1.301 2.89,-2.89 v 0 c 0,-0.041 -0.01,-0.078 -0.012,-0.118 0.081,-0.003 0.159,-0.008 0.24,-0.012 0.364,-0.016 0.723,-0.034 1.081,-0.054 0.292,-0.016 0.581,-0.034 0.869,-0.052 0.309,-0.02 0.617,-0.041 0.921,-0.064 0.229,-0.018 0.456,-0.037 0.682,-0.057 0.263,-0.023 0.523,-0.048 0.782,-0.073 0.223,-0.022 0.447,-0.044 0.668,-0.069 0.324,-0.036 0.642,-0.076 0.959,-0.117 0.288,-0.037 0.572,-0.078 0.855,-0.12 0.024,-0.004 0.049,-0.007 0.073,-0.011 0.062,-0.009 0.124,-0.018 0.185,-0.028 0.178,-0.028 0.357,-0.055 0.533,-0.085 0.214,-0.036 0.425,-0.074 0.636,-0.113 0.195,-0.036 0.389,-0.073 0.581,-0.112 0.041,-0.008 0.081,-0.017 0.122,-0.025 0.2,-0.041 0.401,-0.082 0.598,-0.126 0.292,-0.065 0.579,-0.136 0.863,-0.208 0.261,-0.066 0.517,-0.136 0.772,-0.209 0.229,-0.065 0.457,-0.131 0.68,-0.201 0.191,-0.06 0.379,-0.123 0.566,-0.187 0.202,-0.069 0.401,-0.141 0.599,-0.214 0.181,-0.067 0.362,-0.134 0.539,-0.205 0.125,-0.051 0.247,-0.105 0.37,-0.157 0.018,-0.008 0.035,-0.015 0.052,-0.023 0.116,-0.05 0.231,-0.1 0.345,-0.151 0.222,-0.1 0.439,-0.206 0.654,-0.314 0.193,-0.097 0.385,-0.194 0.572,-0.297 0.163,-0.09 0.322,-0.183 0.481,-0.277 0.172,-0.102 0.34,-0.207 0.506,-0.315 0.15,-0.097 0.302,-0.194 0.449,-0.296 0.24,-0.168 0.474,-0.343 0.702,-0.524 0.159,-0.126 0.313,-0.258 0.466,-0.391 0.16,-0.138 0.318,-0.277 0.472,-0.423 0.129,-0.122 0.254,-0.249 0.379,-0.376 0.141,-0.145 0.278,-0.295 0.413,-0.447 0.115,-0.129 0.231,-0.257 0.342,-0.392 0.217,-0.264 0.426,-0.536 0.625,-0.821 2.007,-2.866 3.122,-6.793 3.122,-12.18 v -3.303 -58.031 l 7.082,2.463 1.844,-5.303 -8.927,-3.105 v -44.001 -3.303 c 0,-21.347 -17.466,-28.838 -38.812,-28.838 v 0 166.154 h 12.181 z"
   id="path130" />
&#10;	</g>
  </g>
</svg>
